<?xml version="1.0" encoding="utf-8"?>
<!-- Generator: Adobe Illustrator 23.1.0, SVG Export Plug-In . SVG Version: 6.00 Build 0)  -->
<svg version="1.1" id="Laag_1" xmlns="http://www.w3.org/2000/svg" xmlns:xlink="http://www.w3.org/1999/xlink" x="0px" y="0px"
	 viewBox="0 0 177.9 111.9" style="enable-background:new 0 0 177.9 111.9;" xml:space="preserve">
<style type="text/css">
	.st0{fill:#FFFFFF;}
	.st1{fill:#CC0000;}
</style>
<g id="Logo">
</g>
<g id="Instructies">
</g>
<g id="Middel">
	<g>
		<g>
			<path class="st0" d="M105,67.3c1.8-0.9,3.5-2,5-3.2c0.3-0.5,0.7-0.8,1.1-1c2.8-2.9,4.6-6.6,4.6-11.2c0,0,0-3.3,0-4.1
				c-0.1,0-0.2,0.1-0.4,0.1s-0.3,0-0.4-0.1l-0.3,1.7c-2.8-0.5-2.5-3.3-0.6-4.3c1.1-0.6,1.4-0.9,1.1-1.4c-0.1-0.1-0.2-0.2-0.3-0.2
				c-0.4,0-1,0.4-1.6,0.9c-0.2,0.2-0.6,0.3-0.9,0.3c-0.7,0-1.5-0.5-1.9-1.6l-1,0.6c-0.2-2.1,1.1-3.1,2.5-3.1c0.6,0,1.3,0.2,1.8,0.7
				c0.2,0.2,0.4,0.2,0.6,0.2c0.6,0,1-0.8,0.2-1.2c-0.8-0.4-1.5-1.7-0.8-2.5l-1.2-1.1c0.5-0.3,1.1-0.5,1.6-0.5c0.6,0,1.1,0.2,1.6,0.6
				V21.9c-0.4-0.1-0.8-0.4-0.8-0.9c0-0.6,0.3-0.9,0.8-1.1v-1.2c-0.9,0.2-1.6,0.7-1.8,1.5l-1.3,0c-0.1-0.9,0.4-1.8,1.4-2.1v-1.2
				c-0.8,0.2-1.3,0.6-1.7,0.9c-0.1,0.1-0.2,0.2-0.3,0.3l-0.9,0c0-0.9,0.4-1.7,1.3-2v-0.6h-3.5l0,0H69.4l0,0h-3.5v0.6
				c0.9,0.3,1.3,1.1,1.3,2l-0.9,0c-0.1-0.1-0.2-0.2-0.3-0.3c-0.3-0.3-0.9-0.7-1.7-0.9v1.2c0.9,0.3,1.4,1.2,1.4,2.1l-1.3,0
				c-0.3-0.8-0.9-1.3-1.8-1.5v1.2c0.4,0.2,0.8,0.5,0.8,1.1c0,0.5-0.4,0.9-0.8,0.9v14.9c0.5-0.4,1-0.6,1.6-0.6c0.6,0,1.1,0.2,1.6,0.5
				l-1.2,1.1c0.7,0.8,0,2.1-0.8,2.5c-0.8,0.4-0.4,1.2,0.2,1.2c0.2,0,0.4-0.1,0.6-0.2c0.5-0.5,1.1-0.7,1.8-0.7c1.3,0,2.6,1,2.5,3.1
				l-1-0.6c-0.3,1.1-1.1,1.6-1.9,1.6c-0.3,0-0.7-0.1-0.9-0.3c-0.6-0.4-1.2-0.9-1.6-0.9c-0.1,0-0.3,0.1-0.3,0.2
				c-0.3,0.4,0,0.8,1.1,1.4c1.9,0.9,2.2,3.7-0.6,4.3l-0.3-1.7c-0.1,0-0.3,0.1-0.4,0.1c-0.1,0-0.2,0-0.3,0v4.1
				c0,4.6,1.8,8.3,4.6,11.2c0.4,0.2,0.7,0.5,1,0.9c1.5,1.3,3.2,2.4,5,3.3C73.2,67.3,105,67.3,105,67.3z"/>
		</g>
		<path class="st1" d="M109.1,15.5h-0.2H69.4h-0.2l-0.6,1.2h40.7L109.1,15.5z M114.5,22.5v13.7c0.4,0.1,0.8,0.2,1.2,0.5v-14
			L114.5,22.5z M114.9,47.7l-0.3,1.7c0,0-0.1,0-0.1,0v2.4c0,3.2-0.9,6.1-2.8,8.7c-0.5,0.6-0.9,1.2-1.5,1.8L65.1,17.1
			c-0.2-0.1-0.5-0.2-0.7-0.2v1.2c0.9,0.3,1.4,1.2,1.4,2.1l-1.3,0c-0.3-0.8-0.9-1.3-1.8-1.5v1.2c0.4,0.2,0.8,0.5,0.8,1.1
			c0,0.5-0.4,0.9-0.8,0.9v14.8c0.5-0.4,1-0.5,1.6-0.5c0.6,0,1.1,0.2,1.6,0.5l-1.2,1.1c0.7,0.8,0,2.1-0.8,2.5
			c-0.8,0.4-0.4,1.2,0.2,1.2c0.2,0,0.4-0.1,0.6-0.2c0.5-0.5,1.1-0.7,1.8-0.7c1.3,0,2.6,1,2.5,3.1l-1-0.6c-0.3,1.1-1.1,1.6-1.9,1.6
			c-0.3,0-0.7-0.1-0.9-0.3c-0.6-0.4-1.2-0.9-1.6-0.9c-0.1,0-0.3,0.1-0.3,0.2c-0.3,0.4,0,0.8,1.1,1.4c1.8,0.9,2.2,3.5-0.2,4.2l-0.4,0
			l-0.3-1.7c-0.1,0-0.3,0.1-0.4,0.1c-0.1,0-0.2,0-0.3,0v4.1c0,4,1.4,7.4,3.6,10.1c0,0,0,0,0,0.1c0.1,0.1,0.2,0.2,0.2,0.3
			c0,0,0,0,0.1,0.1c0.1,0.1,0.2,0.2,0.3,0.3c0,0,0,0,0,0c0.1,0.1,0.2,0.2,0.3,0.3l0,0l0,0c0.1,0.1,0.2,0.2,0.4,0.3
			c0.2,0.2,0.5,0.4,0.6,0.7c1.5,1.3,3.2,2.4,5,3.3l0,0c0.2,0.1,0.4,0.2,0.6,0.3c3,1.5,7.5,3.2,15.2,3.2s12.2-1.7,15.2-3.2
			c0.2-0.1,0.4-0.2,0.6-0.3l0,0c1.8-0.9,3.5-2,5-3.2c0-0.1,0.1-0.1,0.1-0.2c0,0,0,0,0.1-0.1c0,0,0-0.1,0.1-0.1c0,0,0.1-0.1,0.1-0.1
			c0,0,0,0,0,0c0,0,0.1-0.1,0.1-0.1l0,0c0,0,0.1-0.1,0.1-0.1c0,0,0,0,0,0c0,0,0.1-0.1,0.1-0.1l0,0c0.1-0.1,0.2-0.1,0.3-0.2
			c0,0,0,0,0.1,0c2.8-2.9,4.6-6.6,4.6-11.2v-4c-0.1,0-0.2,0.1-0.4,0.1C115.2,47.8,115,47.8,114.9,47.7z"/>
		<path class="st0" d="M116.4,2.6c0-0.2,0-0.4,0-0.6h-2.9c0,1.6-0.4,3.2-1.2,4.4c-0.5,0.8-1.1,1.5-1.7,1.8h0.2
			C113.9,8.3,116.4,5.8,116.4,2.6z M113.5,13.5c-0.2,0-0.4-0.1-0.7-0.1l0,0c-0.2,0-0.3,0-0.5,0c-0.5,0.1-1.1,0.2-1.5,0.5l0,0
			c-0.5,0.3-0.8,0.9-0.8,1.5h0.9c0.4-0.3,0.9-0.6,1.4-0.7v1.2c-0.9,0.3-1.3,1.1-1.3,2l0.9,0c0.1-0.1,0.2-0.2,0.3-0.3
			c0.3-0.3,0.9-0.7,1.7-0.9v1.2c-0.9,0.3-1.4,1.2-1.4,2.1l1.3,0c0.3-0.8,1-1.3,1.9-1.5v1.2c-0.5,0.2-0.9,0.5-0.9,1.1
			c0,0.6,0.5,0.9,0.9,0.9l0,1c0,0,0,0,0,0c0.3,0,0.5-0.1,0.7-0.2c0.8-0.4,1.1-1.3,1.1-2.2l1.1-0.6c0,0,0,0.1,0,0.1
			c0.1,0.7,0,1.4-0.2,2l2.1,2c0.4-1,1-2,1.6-2.9c0.2-0.3,0.5-0.6,0.8-0.9c-0.9-0.7-2.1-1.6-2.4-1.9c-1.2-0.9-2.3-1.9-3.4-2.8
			c-0.7-0.6-1.4-1.2-2.2-1.7C114.5,13.8,114,13.6,113.5,13.5z M133.4,51.2c0.2,0.1,0.3,0.1,0.5,0.1c0.4,0,0.8-0.2,1-0.6
			c0-0.2-0.1-0.4-0.2-0.6c-0.2-0.6-0.5-1.1-0.9-1.7c-0.5-0.7-1.2-1.3-2.1-1.8c-0.1-0.1-0.3-0.2-0.5-0.3c0.6,0.7,1,1.3,1.2,1.7l0,0
			c0.2,0.5,0.4,0.8,0.5,1.2c-0.1,0.1-0.1,0.1-0.1,0.2C132.6,50,132.8,50.9,133.4,51.2z M45.7,48c0.2-0.4,0.6-1,1.2-1.7
			c-0.2,0.1-0.3,0.2-0.5,0.3c-0.9,0.5-1.6,1.1-2.1,1.8c-0.4,0.5-0.7,1.1-0.9,1.7c-0.1,0.2-0.1,0.4-0.2,0.6c0.2,0.4,0.6,0.6,1,0.6
			c0.2,0,0.3,0,0.5-0.1c0.6-0.3,0.9-1.2,0.4-1.8c0-0.1-0.1-0.1-0.1-0.2C45.3,48.9,45.4,48.5,45.7,48L45.7,48z M124.3,14.4
			c0.2,0,0.5,0,0.7,0c-0.7-0.3-1.3-0.7-1.7-1.3c-0.5-0.8-0.6-1.7-0.4-2.5c0,0-0.1,0-0.1,0c-0.9,0.2-1.3,0.9-1.2,1.8
			C121.8,13.7,122.7,14.4,124.3,14.4z M135.1,52.7c0-0.2,0-0.4,0-0.6c-0.4,0.2-0.8,0.3-1.2,0.3c-0.4,0-0.7-0.1-1.1-0.3
			c-0.7-0.3-1.1-1-1.3-1.7c-0.1-0.5,0-1,0.2-1.4c0,0,0,0,0,0c-0.5-0.1-1.1-0.2-1.7-0.2c-1-0.1-2-0.2-2.9-0.2c-8.2,0-8.8,4.5-8.8,4.5
			c-1.3,4.8,2.5,6.9,2.5,6.9s0.9,4.3-1.1,6l-2-0.7l-1-0.3l-0.6-0.2l0,0c-0.9-1.3-2.4-2.2-3.8-2.2c-1.4,0-2.7,0.9-3.3,3.1l1.4-0.3
			c0,1.5,0.5,1.8,1.2,1.8l0,0c0.2,0,0.3,0,0.5,0c0.2,0,0.4-0.1,0.6-0.1c0.7-0.1,1.2-0.3,1.6-0.3c0.3,0,0.6,0.1,0.7,0.5l0,0
			c0.2,0.6-0.3,0.9-1,1.1c-1.7,0.4-2.6,1.6-2.3,3.1c0.1,0.4,0.2,0.7,0.4,1.1c0.1,0.2,0.2,0.3,0.3,0.5c0,0,0,0,0,0l1.7-1
			c0.2,0.2,0.5,0.3,0.8,0.3c0.6,0,1.2-0.5,1.5-0.9c0,0,0-0.1,0.1-0.1c0.2-0.4,0.2-0.8,0.2-1.2c0-0.2,0-0.5,0-0.7
			c0-0.2,0-0.5,0.1-0.6c0.1-0.3,0.3-0.5,0.6-0.6c0.1,0,0.2-0.1,0.3-0.1c0.2,0,0.3,0.1,0.5,0.2c0.4,0.3,0.4,0.7,0.3,1.2l0,0
			c-0.1,0.5-0.1,0.9,0.1,1.3c0,0,0,0.1,0.1,0.1c0.1,0.1,0.2,0.2,0.3,0.3c0.1,0.1,0.4,0.3,0.4,0.4l-0.2,2c1.1-0.1,2.2-0.3,2.8-1.3
			c0.1-0.2,0.2-0.4,0.3-0.7c0.2-0.7,0.3-1.7,0.4-2.9c0.5-0.2,0.9-0.4,1.3-0.8c0.5-0.4,0.8-0.9,1-1.5c0.6-1.7,1.1-5.1,0.3-8.7
			c0,0,7.6-0.9,9.3-1.8C134.8,55,134.9,53.8,135.1,52.7z M128.4,8.7c0,0-1,0.6-0.8,1.6c0.3,0.7,0.8,1.5,1.3,2.1l1.1-1.1
			c1.3-1.2,2.4-1.6,3.3-1.6c1.2,0,2,0.8,2.4,1.6c0.5,1.3,0.5,2.4,0.3,3.1c-0.2,0.5-0.6,0.9-1.5,1c-0.2,0-0.4,0-0.6,0
			c-2,0-4.5-0.7-4.5-0.7c-0.4,2.1-0.6,2.5,2.4,2.5c0.7,0,1.6,0,2.7-0.1l-3,1.4c-0.3,0-0.7,0-1,0c-2.2,0-4,0.7-5.4,1.7
			c-0.3,0.2-0.6,0.5-0.9,0.8c-1.1,1.1-1.9,2.5-2.4,3.9c-0.2,0.4-0.3,0.8-0.4,1.3c-0.6,2.2-0.7,4.5-0.4,6.3c0.2-0.3,0.5-0.6,0.7-0.8
			l0.1-0.1c0.9-0.9,2.4-2.4,4.3-3.4c0.7-0.6,1.3-1.2,2-1.9c1.3-1.4,2.5-3,3.4-4.8c-0.6,1.9-1.5,3.8-2.6,5.4
			c-0.4,0.7-0.9,1.3-1.4,1.9c-0.4,0.2-0.8,0.4-1.2,0.6c-1.6,0.9-3,2.3-3.8,3.1c-0.5,0.5-0.9,1-1.2,1.5c-0.3,0.4-0.5,0.8-0.8,1.3
			c-0.2,0.3-0.4,0.7-0.6,1c-0.9,1.4-2,2.8-2.6,2.8l0,0l0,0c-0.2,0-0.4-0.2-0.5-0.6c-0.3-1.7-1.4-2.5-2.6-2.5c-0.6,0-1.1,0.2-1.6,0.5
			l1.2,1.1c-0.7,0.8,0,2.1,0.8,2.5c0.8,0.4,0.4,1.2-0.2,1.2c-0.2,0-0.4-0.1-0.6-0.2c-0.5-0.5-1.1-0.7-1.8-0.7c-1.3,0-2.6,1-2.5,3.1
			l1-0.6c0.3,1.1,1.1,1.6,1.9,1.6c0.3,0,0.7-0.1,0.9-0.3c0.6-0.4,1.2-0.9,1.6-0.9c0.1,0,0.3,0.1,0.3,0.2c0.3,0.4,0,0.8-1.1,1.4
			c-1.9,0.9-2.2,3.7,0.6,4.3l0.3-1.7c0.1,0,0.3,0.1,0.4,0.1c0.8,0,1.4-0.7,1.5-1.3c0.1-0.8,0.1-1.3,0.1-1.7c0-0.4,0.3-0.6,0.6-0.6
			c0.3,0,0.7,0.2,0.7,0.7c0.1,0.8,0,1.9,1.5,2.1l0,0l0,0l0.5,1.5c1.4-0.5,2.7-2,0.2-4.7c0-1.3,1.4-2.1,3.4-3.2
			c0.3-0.2,0.7-0.4,1.1-0.6c0.2-0.1,0.4-0.2,0.6-0.3c0.4-0.2,1.9-1.4,3.3-2.5l1.2,0.6c-0.2,0.2-0.5,0.4-0.8,0.7c-1.2,1-2.5,2-3,2.3
			c-0.1,0.1-0.2,0.1-0.3,0.2c1.3,1.2,2.7,2.2,3.9,3.1c0.5,0.3,1,0.7,1.5,0.9c0.5,0.3,0.9,0.5,1.3,0.7c1,0.6,1.8,1.3,2.4,2.1
			c0.4,0.5,0.7,1.1,0.9,1.6c0.2,0.5,0.4,1.1,0.5,1.6c0,0.2,0.1,0.4,0.1,0.6c0,0.5,0,1,0,1.5c-0.1,0.5-0.1,1-0.2,1.5
			c-0.1,0.8-0.2,1.5-0.2,2.3c-0.1,0.9-0.1,1.8-0.1,2.7c0,2.7,0.4,4.7,2.3,6.5c1.4,1.3,3.3,1.7,5.1,1.8c1,0.1,3.7,0.5,5.5,0.7
			c1.1,0.2,1.9,1,1.9,2.1c0.1,1.5,0.1,3.4-0.5,4l-2.5-0.3c-0.6-0.9-2-1.6-3.4-1.6c-1.1,0-2.1,0.4-2.7,1.5c-0.2,0.3-0.3,0.7-0.4,1.2
			c0,0.1,0,0.3-0.1,0.4l0.8-0.3l0.5-0.2c0,0.1,0,0.2,0.1,0.3c0.3,1.1,0.8,1.5,1.5,1.5c0.3,0,0.7-0.1,1-0.2c0,0,0.1,0,0.1-0.1
			c0.6-0.3,1.1-0.5,1.4-0.5c0.2,0,0.4,0.1,0.6,0.4c0.2,0.4,0,0.7-0.4,0.9c-0.1,0.1-0.3,0.2-0.4,0.2c-1.9,0.8-2.5,2.7-0.7,4.6
			l1.3-1.2c0.2,0.1,0.4,0.2,0.6,0.2c0.6,0,1.2-0.6,1.4-1c0.2-0.7,0-1.4-0.1-2c0-0.2,0-0.3,0-0.4c0-0.3,0.2-0.6,0.5-0.7
			c0.1-0.1,0.2-0.1,0.4-0.1c0.1,0,0.2,0,0.3,0.1c0.1,0.1,0.2,0.1,0.3,0.2c0.2,0.2,0.2,0.5,0.2,0.8c0,0.2,0,0.3,0,0.5
			c0,0.3,0.1,0.5,0.3,0.7c0.1,0.1,0.2,0.2,0.3,0.2c0.1,0,0.4,0.2,0.5,0.3l0.2,1.9c1.3-0.3,2.8-1,2.4-3c-0.1-0.3-0.2-0.7-0.4-1.2
			c-0.1-0.2-0.1-0.3-0.2-0.5c1.2-0.6,1.9-1.7,2.1-2.9c0.2-1.2,0-5.3-0.2-7.6c-0.1-0.9-0.8-1.7-1.7-1.9c-1.1-0.2-2.4-0.4-3.4-0.6
			c-1.6-0.3-3.1-1-3.5-2.2c-0.3-1-0.1-1.1,0-2.1c0.1-0.8,0.2-1.6,0.2-2.4c0-0.1,0-0.2,0-0.4c0-0.5,0-0.9-0.1-1.4
			c0.1,0.1,0.2,0.1,0.3,0.2c0.3,0.2,0.6,0.3,0.9,0.4c0.4,0.1,0.7,0.1,1.1,0.1c0.8,0,1.6-0.2,2.3-0.6c1.3-0.8,2-2.1,2-3.6
			c-0.1-2.6-1.6-4.5-3-6.3c-0.7-0.9-1.4-1.7-1.9-2.7c-1.7-3-2.1-6.3-1.2-9.8c0.4-1.5,1.3-2.9,2.3-4.3c0.4-0.6,0.7-1.1,1-1.6
			c0,0,0.8,0.3,1.3,0.2c0.1,0,0.3-0.1,0.4-0.2c1.2-0.7,2.4-3.7,2.3-7.2c0-2.8-0.7-5.1-2-7.1c0.3,0.8,0.5,1.6,0.7,2.5
			c0.2,0.9,0.2,1.9,0.2,2.8c-0.1,0.9-0.2,1.8-0.6,2.7c0.1-0.9,0.1-1.8,0-2.7s-0.3-1.7-0.7-2.5c-0.3-0.7-0.6-1.4-1-2
			c0.3,1.6,0.3,3.3-0.2,5.3c-0.3,1.3-0.8,2.5-1.3,3.5c-0.4,1-0.8,1.7-0.9,2.4c-0.2,0.7-0.1,1.2,0.4,1.7c-0.1,0.1-0.2,0.3-0.2,0.4
			c-0.2,0.3-0.4,0.7-0.7,1c-1,1.5-2,3-2.5,4.8c-1,3.8-0.5,7.6,1.3,10.9c0.6,1.1,1.3,2,2.1,2.9c1.3,1.7,2.6,3.3,2.7,5.4
			c0,1-0.5,1.8-1.3,2.4c-0.9,0.5-1.9,0.6-2.8,0.1c0,0-0.1,0-0.1,0c-0.7-0.4-1.3-1-1.7-1.8c0,0,0-0.1,0-0.1c-0.4-1.3-1-2.5-1.6-3.7
			c-1.8-3.6-4-6.9-5.4-10.7c-1.2-3.2-0.7-7.2-0.7-7.2c1.2,0.5,3,0.6,3,0.6c-0.1-4,8.6-13.4,3.3-24.7c-0.4,0.6-0.8,1.2-1.5,1.8
			l-0.5,0.5V7.8c2.8-2.8,1.5-5.6,0.5-6.5c-0.8,0.3-1.7,1.1-2.3,2.2l-1.2-0.4c0.3-0.5,0.6-0.9,1-1.3c-0.1-0.1-0.2-0.1-0.4-0.2
			c-0.1,0-0.1,0-0.2,0c-1.7,0-8.2,1.5-8.9,1.8l-0.5,1.7c-1.8,0.5-3.4,1.4-4.6,2C126.7,7.7,127.3,8.9,128.4,8.7z M141.2,19.9
			c0.5-1.3,0.9-2.7,1.2-4c-0.2,1.4-0.4,2.8-0.7,4.2s-0.8,2.7-1.3,4.1c-0.5,1.3-1.1,2.6-1.7,3.9c-0.5,1-1,2-1.5,3
			c-0.5-0.2-1-0.4-1.7-0.8c1.5-2.1,2.9-4.2,4-6.5C140.2,22.4,140.8,21.2,141.2,19.9z M136.3,21.9c-0.3,0.9-0.6,1.8-1,2.8
			c-0.4,0.9-0.9,1.8-1.3,2.6c-0.3,0.5-0.6,1-0.9,1.5c-0.6-0.2-1.3-0.4-1.9-0.4c0.6-0.6,1.1-1.3,1.7-2c0.6-0.7,1.2-1.5,1.7-2.3
			c0.5-0.8,0.9-1.6,1.4-2.5c0.4-0.9,0.9-1.7,1.3-2.6C136.8,20.1,136.5,21,136.3,21.9z M135.9,5.5c-1.3,1.3-1.8,2.1-1.8,2.1
			c-1.8,0.1-2.1-1-2.1-2.1C133.7,5.9,135.9,5.5,135.9,5.5z M112.3,9.5H66v2.8c0.6,0.1,1.4,0.3,2.1,0.8c0.8,0.6,1.3,1.5,1.3,2.4v0
			h39.4v0c0-0.9,0.5-1.8,1.3-2.4l0,0c0.7-0.5,1.6-0.7,2.2-0.8V9.5z M75.7,14.5l-3.8-1.9l3.8-1.9l3.8,1.9L75.7,14.5z M89.1,14.3
			c-1.9,0-3.4-0.8-3.4-1.7s1.5-1.7,3.4-1.7s3.4,0.8,3.4,1.7S91,14.3,89.1,14.3z M102.6,14.5l-3.8-1.9l3.8-1.9l3.8,1.9L102.6,14.5z
			 M63,67.3c0.1-0.4,0.4-0.5,0.7-0.5c0.4,0,0.9,0.1,1.6,0.3c0.2,0,0.4,0.1,0.6,0.1c0.2,0,0.3,0,0.5,0l0,0c0.7,0,1.2-0.4,1.2-1.8
			l1.4,0.3c-0.6-2.3-2-3.1-3.3-3.1c-1.4,0-2.9,0.9-3.8,2.2l0,0L61.4,65l-1,0.4l-2,0.7c-2-1.7-1.1-6-1.1-6s3.8-2.1,2.5-6.9
			c0,0-0.7-4.5-8.8-4.5c-0.9,0-1.8,0.1-2.9,0.2c-0.6,0.1-1.2,0.2-1.7,0.2c0,0,0,0,0,0c0.2,0.4,0.2,0.9,0.2,1.4
			c-0.1,0.7-0.6,1.4-1.3,1.7c-0.3,0.2-0.7,0.3-1.1,0.3c-0.4,0-0.8-0.1-1.2-0.3c0,0.2,0,0.4,0,0.6c0.2,1.1,0.3,2.2,0.4,3.4
			c1.7,0.8,9.3,1.8,9.3,1.8c-0.7,3.6-0.3,7,0.3,8.7c0.2,0.6,0.6,1.1,1,1.5c0.4,0.3,0.8,0.6,1.3,0.8c0.1,1.3,0.2,2.2,0.4,2.9
			c0.1,0.3,0.2,0.5,0.3,0.7c0.6,1,1.7,1.2,2.8,1.3l-0.2-2c0-0.1,0.4-0.3,0.4-0.4c0.1-0.1,0.2-0.2,0.3-0.3c0,0,0-0.1,0.1-0.1
			c0.2-0.4,0.2-0.8,0.1-1.3l0,0c-0.1-0.4-0.1-0.9,0.3-1.2c0.2-0.1,0.3-0.2,0.5-0.2c0.1,0,0.2,0,0.3,0.1c0.3,0.1,0.5,0.3,0.6,0.6
			c0.1,0.2,0.1,0.4,0.1,0.6c0,0.2,0,0.4,0,0.7c0,0.4,0,0.8,0.2,1.2c0,0,0,0.1,0.1,0.1c0.2,0.4,0.8,0.9,1.5,0.9
			c0.3,0,0.6-0.1,0.8-0.3l1.7,1c0,0,0,0,0,0c0.1-0.2,0.2-0.3,0.3-0.5c0.2-0.4,0.3-0.8,0.4-1.1c0.3-1.6-0.6-2.8-2.3-3.1
			C63.4,68.2,62.8,67.9,63,67.3L63,67.3z M125.1,76.1c-0.5-0.7-1-1.2-1.5-1.6c-0.2-0.1-0.4-0.2-0.6-0.3l-0.5-0.3
			c-0.9,0.8-2.1,1-3.1,1l-1.4,0.1l0.1-1.4l0.1-1.4c-0.2-0.1-0.3-0.3-0.5-0.5c0,0,0,0,0,0c-0.1,0.2-0.1,0.3-0.2,0.5
			c-0.4,0.7-1.4,1.4-2.5,1.4c-0.3,0-0.6-0.1-0.8-0.2l-0.6,0.4c0,0,0.1,0.1,0.1,0.1c2,1.9,3.5,2.1,6.1,2.7c1.7,0.4,3.4,1.4,3.9,3.2
			c0.3,1,0.3,2.2,0.2,3.3c0,0,3.6-2,1.7-6C125.6,76.8,125.3,76.5,125.1,76.1z M100.8,74.7c-1.1-1.1-2.3-2.1-3.5-2.7
			c-1-0.5-2-0.8-2.9-1c-0.6-0.1-1.2-0.2-1.7-0.3c-0.3,0-0.6-0.1-0.9-0.1c-0.8,0-1.7,0.1-2.5,0.1c-0.9,0-1.7,0-2.5-0.1
			c-0.3,0-0.6,0-0.9,0.1c-0.6,0.1-1.1,0.2-1.7,0.3c-0.9,0.2-1.9,0.5-2.9,1c-1.2,0.6-2.4,1.5-3.5,2.7c-0.1,0.1-0.1,0.1-0.2,0.2
			c-2.4,2.6-1.8,5.2-1.8,5.2s3.1-4.1,7.8-4.1c2.2,0,4.1,0.7,5.1,1.2l0.7,0.4l0.7-0.4c1-0.5,2.9-1.2,5.1-1.2c4.6,0,7.8,4.1,7.8,4.1
			s0.7-2.6-1.8-5.2C100.9,74.9,100.9,74.8,100.8,74.7z M76.6,73.9c1.8-1.9,3.9-3,5.7-3.7c-1.7-0.3-3.1-0.6-4.4-1c-0.1,0-0.3,0-0.4,0
			c-0.4,0-0.8,0-1.2,0.1c-1.1,0.1-2.1,0.3-3,0.3c-2.5,0-4.7-0.4-6.5-0.9c0.2,0.2,0.4,0.5,0.5,0.8c0.3,0.7,0.3,1.5,0.2,2.3
			c0.1,0,0.1,0,0.2,0.1c0.3,0.1,0.7,0.2,0.9,0.2c0.5,0.1,0.8,0.1,0.8,0.1s-0.5,0.2-1.1,0.7c-0.8,0.5-1.8,1.3-2.7,2.3
			c-4.2,4.6,0.4,8.1,0.4,8.1s-1-4.5,1.2-6c3.5-2.3,5.3-0.3,9.3-3.3C76.5,74,76.6,74,76.6,73.9z M64.6,73.9L64,73.6
			c-0.2,0.1-0.5,0.2-0.8,0.2c-1.1,0-2.1-0.7-2.5-1.4c-0.1-0.2-0.2-0.3-0.2-0.5c0,0,0,0,0,0c-0.2,0.2-0.3,0.3-0.5,0.5l0.1,1.4
			l0.1,1.4L58.8,75c-0.9-0.1-2.1-0.2-3.1-1l-0.5,0.3c-0.2,0.1-0.4,0.2-0.6,0.3c-0.5,0.4-1.1,0.9-1.5,1.6c-0.2,0.4-0.4,0.7-0.6,1
			c-1.9,4,1.7,6,1.7,6c-0.1-1.1-0.1-2.2,0.2-3.3c0.6-1.8,2.2-2.8,3.9-3.2c2.6-0.6,4.1-0.8,6.1-2.7C64.6,74,64.6,74,64.6,73.9z
			 M109.9,72.9c-0.6-0.4-1.1-0.7-1.1-0.7s0.3,0,0.8-0.1c0.3,0,0.6-0.1,0.9-0.2c0.1,0,0.1,0,0.2-0.1c-0.2-0.8-0.1-1.6,0.2-2.3
			c0.1-0.3,0.3-0.6,0.5-0.8c-1.8,0.5-4,0.9-6.5,0.9c-1,0-2-0.2-3-0.3c-0.4,0-0.8-0.1-1.2-0.1c-0.1,0-0.2,0-0.4,0
			c-1.3,0.4-2.7,0.7-4.4,1c1.8,0.6,3.9,1.8,5.7,3.7c0.1,0.1,0.1,0.1,0.1,0.2c3.9,3,5.8,1,9.3,3.3c2.2,1.4,1.2,6,1.2,6
			s4.6-3.5,0.4-8.1C111.7,74.3,110.7,73.4,109.9,72.9z M155.5,78.8c0.1,0.8,0.1,1.5-0.2,2.2c-0.6,1.4-2.1,1.9-3.1,2.1l-1.3,0.3
			l-0.1-1.4l-0.1-1.3c-0.1-0.1-0.2-0.2-0.4-0.3c0,0.1-0.1,0.2-0.1,0.3c-0.3,0.9-1.3,1.8-2.5,1.8c-0.1,0-0.2,0-0.3,0l-0.8,0.7
			l-0.9,0.8l-0.8-0.9c-1.1-1.2-1.6-2.6-1.3-3.8c0.1-0.4,0.2-0.8,0.5-1.1c-0.7,0-1.3-0.3-1.8-0.8c-0.2-0.2-0.3-0.4-0.5-0.6l-0.1,0
			l-1.8,0.8l0.2-2c0-0.1,0-0.1,0-0.2c-0.8,0.1-1.8,0.4-3.1,0.9c-0.2,0.1-0.4,0.2-0.5,0.2c-0.1,0-0.2,0.1-0.3,0.1
			c0.4,0.2,0.8,0.5,1.2,0.7c1.8,1.2,3,2.4,3.7,3.7c0.4,0.4,0.8,0.9,1.3,1.4c2,2.1,4.6,3.1,7.3,3.1c4.6,0,9.4-2.9,11.1-7.9
			C160.7,77.7,158.4,78.5,155.5,78.8z M136.6,78.4c-2.4-1.5-5.1-2.4-5.1-2.4c0.5,0,0.9,0.1,1.3,0.1c1,0,1.9-0.1,2.6-0.3
			c0.4-0.1,0.8-0.3,1.1-0.4c2.2-1.1,2.3-3.2,2.3-3.2c-1.8,1.2-3.3,1.6-4.8,1.6c-1.9,0-3.5-0.7-5.3-1.2c-0.5-0.2-1-0.2-1.5-0.2
			c-1.4,0-2.7,0.5-3.4,0.9c0.9,0.6,1.7,1.3,2.2,2.1c0.2,0.4,0.4,0.7,0.6,1.1c0.6,0.8,0.9,1.5,1.5,1.9c1.3,1.1,3.1,1.3,4.8,1.4
			c5,0.4,7.1,4.9,7.1,4.9c0.4-1,0.3-2-0.1-2.9C139.4,80.5,138,79.3,136.6,78.4z M54.4,73.3c-0.7-0.4-1.9-0.9-3.4-0.9
			c-0.5,0-1,0.1-1.5,0.2c-1.7,0.5-3.4,1.2-5.3,1.2c-1.4,0-3-0.4-4.8-1.6c0,0,0.1,2,2.3,3.2c0.3,0.2,0.7,0.3,1.1,0.4
			c0.7,0.2,1.6,0.3,2.6,0.3c0.4,0,0.9,0,1.3-0.1c0,0-2.7,0.9-5.1,2.4c-1.5,0.9-2.8,2.1-3.4,3.5c-0.4,0.9-0.5,1.9-0.1,2.9
			c0,0,2-4.5,7.1-4.9c1.7-0.1,3.5-0.4,4.8-1.4c0.6-0.5,0.9-1.2,1.5-1.9c0.2-0.4,0.4-0.7,0.6-1.1C52.7,74.6,53.5,73.9,54.4,73.3z
			 M24.6,77.3c-0.1,0.2-0.2,0.3-0.2,0.5c-0.2,0.4-0.3,0.8-0.4,1.2c-0.4,2.1,1.1,2.7,2.4,3l0.2-1.9c0-0.1,0.4-0.2,0.5-0.3
			c0.1-0.1,0.2-0.2,0.3-0.2c0.2-0.2,0.3-0.5,0.3-0.7c0-0.2,0-0.3,0-0.5c0-0.3,0.1-0.6,0.2-0.8c0.1-0.1,0.2-0.2,0.3-0.2
			c0.1-0.1,0.2-0.1,0.3-0.1c0.1,0,0.2,0,0.4,0.1c0.2,0.1,0.5,0.4,0.5,0.7c0,0.1,0,0.3,0,0.4c-0.1,0.6-0.4,1.3-0.1,2
			c0.2,0.4,0.7,1,1.4,1c0.2,0,0.4-0.1,0.6-0.2l1.3,1.2c1.8-1.9,1.2-3.8-0.7-4.6c-0.2-0.1-0.3-0.1-0.4-0.2c-0.4-0.2-0.6-0.6-0.4-0.9
			c0.2-0.3,0.3-0.4,0.6-0.4c0.3,0,0.8,0.2,1.4,0.5c0,0,0.1,0,0.1,0.1c0.4,0.1,0.7,0.2,1,0.2c0.7,0,1.2-0.4,1.5-1.5
			c0-0.1,0-0.2,0.1-0.3l0.5,0.2l0.8,0.3c0-0.1,0-0.3-0.1-0.4c-0.1-0.5-0.2-0.8-0.4-1.2c-0.6-1.1-1.6-1.5-2.7-1.5
			c-1.4,0-2.8,0.7-3.4,1.6l-2.5,0.3c-0.5-0.6-0.5-2.5-0.5-4c0.1-1.1,0.9-2,1.9-2.1c1.8-0.3,4.6-0.7,5.5-0.7c1.8-0.1,3.8-0.5,5.1-1.8
			c1.9-1.9,2.3-3.8,2.3-6.5c0-0.9,0-1.8-0.1-2.7c-0.1-0.8-0.2-1.6-0.2-2.3c-0.1-0.5-0.1-1-0.2-1.5c-0.1-0.5-0.1-1,0-1.5
			c0-0.2,0-0.4,0.1-0.6c0.1-0.6,0.2-1.1,0.5-1.6c0.2-0.6,0.6-1.1,0.9-1.6c0.6-0.8,1.4-1.5,2.4-2.1c0.4-0.2,0.8-0.5,1.3-0.7
			c0.5-0.3,0.9-0.6,1.5-0.9c1.3-0.8,2.6-1.9,3.9-3.1c-0.1-0.1-0.2-0.1-0.3-0.2c-0.5-0.3-1.8-1.3-3-2.3c-0.3-0.2-0.6-0.5-0.8-0.7
			l1.2-0.6c1.4,1.2,2.9,2.3,3.3,2.5c0.2,0.1,0.4,0.2,0.6,0.3c0.4,0.2,0.7,0.4,1.1,0.6c2,1.1,3.4,1.9,3.4,3.2
			c-2.5,2.7-1.1,4.2,0.2,4.7l0.5-1.5l0,0c1.4-0.2,1.4-1.3,1.5-2.1c0-0.4,0.4-0.7,0.7-0.7c0.3,0,0.6,0.2,0.6,0.6c0,0.5,0,1,0.1,1.7
			c0.1,0.5,0.7,1.3,1.5,1.3c0.1,0,0.3,0,0.4-0.1l0.3,1.7c2.8-0.5,2.5-3.3,0.6-4.3c-1.1-0.6-1.4-0.9-1.1-1.4c0.1-0.1,0.2-0.2,0.3-0.2
			c0.4,0,1,0.4,1.6,0.9c0.2,0.2,0.6,0.3,0.9,0.3c0.7,0,1.5-0.5,1.9-1.6l1,0.6c0.2-2.1-1.1-3.1-2.5-3.1c-0.6,0-1.3,0.2-1.8,0.7
			c-0.2,0.2-0.4,0.2-0.6,0.2c-0.6,0-1-0.8-0.2-1.2c0.8-0.4,1.5-1.7,0.8-2.5l1.2-1.1c-0.5-0.3-1.1-0.5-1.6-0.5
			c-1.2,0-2.3,0.8-2.6,2.5c-0.1,0.4-0.2,0.6-0.5,0.6l0,0l0,0c-0.6,0-1.8-1.4-2.6-2.8c-0.2-0.3-0.4-0.7-0.6-1
			c-0.2-0.4-0.5-0.9-0.8-1.3c-0.4-0.5-0.7-1-1.2-1.5c-0.8-0.8-2.2-2.2-3.8-3.1c-0.4-0.2-0.8-0.4-1.2-0.6c-0.5-0.6-0.9-1.3-1.4-1.9
			c-1.1-1.7-2-3.5-2.6-5.4c0.9,1.8,2.1,3.4,3.4,4.8c0.6,0.7,1.3,1.3,2,1.9c1.8,0.9,3.4,2.5,4.3,3.4l0.1,0.1c0.3,0.3,0.5,0.5,0.7,0.8
			c0.3-1.9,0.2-4.2-0.4-6.3c-0.1-0.4-0.2-0.9-0.4-1.3c-0.6-1.5-1.3-2.8-2.4-3.9c-0.3-0.3-0.6-0.6-0.9-0.8c-1.4-1.1-3.2-1.7-5.4-1.7
			c-0.3,0-0.6,0-1,0l-3-1.4c1.1,0,2,0.1,2.7,0.1c3,0,2.8-0.4,2.4-2.5c0,0-2.6,0.7-4.5,0.7c-0.2,0-0.4,0-0.6,0
			c-0.9-0.1-1.4-0.5-1.5-1c-0.2-0.7-0.2-1.7,0.3-3.1c0.3-0.9,1.2-1.6,2.4-1.6c0.9,0,2,0.4,3.3,1.6l1.1,1.1c0.6-0.6,1-1.4,1.3-2.1
			c0.2-1-0.8-1.6-0.8-1.6c1.1,0.1,1.6-1,1.8-1.5c-1.2-0.6-2.8-1.6-4.6-2l-0.5-1.7c-0.7-0.3-7.2-1.8-8.9-1.8c-0.1,0-0.2,0-0.2,0
			c-0.1,0-0.3,0.1-0.4,0.2c0.4,0.4,0.7,0.9,1,1.3L37,3.5c-0.6-1-1.5-1.9-2.3-2.2c-1,0.9-2.3,3.6,0.5,6.5v1.7L34.6,9
			c-0.7-0.6-1.1-1.2-1.5-1.8c-5.3,11.4,3.4,20.7,3.3,24.7c0,0,1.8-0.1,3-0.6c0,0,0.6,3.9-0.7,7.2c-1.4,3.8-3.6,7.1-5.4,10.7
			c-0.6,1.2-1.1,2.4-1.6,3.7c0,0,0,0.1,0,0.1c-0.4,0.8-1,1.5-1.7,1.8c0,0-0.1,0-0.1,0c-0.9,0.5-1.9,0.4-2.8-0.1
			c-0.9-0.5-1.3-1.4-1.3-2.4c0.1-2.2,1.3-3.8,2.7-5.4c0.7-0.9,1.5-1.8,2.1-2.9c1.8-3.3,2.3-7.1,1.3-10.9c-0.5-1.7-1.5-3.3-2.5-4.8
			c-0.2-0.3-0.4-0.7-0.7-1c-0.1-0.1-0.2-0.3-0.2-0.4c0.5-0.4,0.6-1,0.4-1.7c-0.1-0.6-0.5-1.4-0.9-2.4c-0.5-1.1-1-2.3-1.3-3.5
			c-0.4-2-0.4-3.7-0.2-5.3c-0.4,0.6-0.7,1.3-1,2c-0.3,0.8-0.6,1.6-0.7,2.5c-0.1,0.9-0.1,1.8,0,2.7c-0.3-0.8-0.5-1.7-0.6-2.7
			c-0.1-0.9,0-1.9,0.2-2.8c0.2-0.8,0.4-1.7,0.7-2.5c-1.3,1.9-2,4.2-2,7.1c0,3.5,1.2,6.5,2.3,7.2c0.2,0.1,0.3,0.2,0.4,0.2
			c0.5,0.1,1.3-0.2,1.3-0.2c0.3,0.6,0.7,1.1,1,1.6c1,1.5,1.9,2.8,2.3,4.3c0.9,3.5,0.5,6.8-1.2,9.8c-0.5,0.9-1.2,1.8-1.9,2.7
			c-1.4,1.8-2.9,3.7-3,6.3c0,1.5,0.7,2.8,2,3.6c0.7,0.4,1.5,0.6,2.3,0.6c0.4,0,0.7-0.1,1.1-0.1c0.3-0.1,0.6-0.2,0.9-0.4
			c0.1-0.1,0.2-0.1,0.3-0.2c-0.1,0.5-0.1,0.9-0.1,1.4c0,0.1,0,0.2,0,0.4c0.1,0.8,0.2,1.6,0.2,2.4c0.1,1,0.3,1.1,0,2.1
			c-0.4,1.1-1.9,1.8-3.5,2.2c-1,0.2-2.4,0.4-3.4,0.6c-0.9,0.1-1.7,0.9-1.7,1.9c-0.1,2.3-0.3,6.5-0.2,7.6
			C22.7,75.6,23.4,76.7,24.6,77.3z M46.3,5.5c0,1.1-0.4,2.2-2.1,2.1c0,0-0.5-0.8-1.8-2.1C42.4,5.5,44.6,5.9,46.3,5.5z M42.5,21.8
			c0.4,0.9,0.9,1.7,1.4,2.5c0.5,0.8,1.1,1.5,1.7,2.3c0.5,0.6,1.1,1.3,1.7,2c-0.6,0-1.3,0.2-1.9,0.4c-0.3-0.5-0.6-1-0.9-1.5
			c-0.5-0.8-0.9-1.7-1.3-2.6c-0.4-0.9-0.7-1.8-1-2.8c-0.3-0.9-0.6-1.8-0.8-2.8C41.6,20,42,20.9,42.5,21.8z M39.5,28
			c-0.6-1.3-1.2-2.6-1.7-3.9c-0.5-1.3-0.9-2.7-1.3-4.1c-0.3-1.4-0.6-2.8-0.7-4.2c0.3,1.4,0.7,2.7,1.2,4s1,2.6,1.7,3.8
			c1.2,2.3,2.6,4.4,4,6.5c-0.6,0.4-1.2,0.6-1.7,0.8C40.5,29.9,40,29,39.5,28z M75.4,5.6h1.3c0.3,1.1,0.9,2,1.6,2.7h2.7
			c-0.7-0.4-1.3-1-1.7-1.8c-0.7-1.2-1.1-2.8-1.2-4.4h-3.8c0,1.6-0.4,3.2-1.2,4.4c-0.5,0.8-1.1,1.5-1.7,1.8h2.5
			C74.5,7.7,75.1,6.7,75.4,5.6z M67.7,8.3H68c-0.7-0.4-1.3-1-1.7-1.8c-0.7-1.2-1.1-2.8-1.2-4.4h-2.9c0,0.2,0,0.3,0,0.5
			C62.1,5.7,64.7,8.3,67.7,8.3z M88.5,5.6h1.3c0.3,1.1,0.9,2,1.6,2.7h2.8c-0.7-0.4-1.3-1-1.7-1.8c-0.7-1.2-1.1-2.8-1.2-4.4h-4.1
			c0,1.6-0.4,3.2-1.2,4.4C85.6,7.3,85,8,84.3,8.3H87C87.6,7.7,88.2,6.7,88.5,5.6z M41,77.5c0.4-0.2,0.7-0.5,1.2-0.7
			c-0.1,0-0.2-0.1-0.3-0.1c-0.2-0.1-0.4-0.2-0.5-0.2c-1.3-0.5-2.2-0.8-3.1-0.9c0,0.1,0,0.1,0,0.2l0.2,2L36.7,77l-0.1,0
			c-0.1,0.2-0.3,0.5-0.5,0.6c-0.5,0.5-1.1,0.8-1.8,0.8c0.2,0.3,0.4,0.7,0.5,1.1c0.3,1.3-0.2,2.6-1.3,3.8l-0.8,0.9l-0.9-0.8L31,82.7
			c-0.1,0-0.2,0-0.3,0c-1.2,0-2.2-0.9-2.5-1.8c0-0.1-0.1-0.2-0.1-0.3c-0.1,0.1-0.2,0.2-0.4,0.3l-0.1,1.3l-0.1,1.4l-1.3-0.3
			c-1-0.2-2.4-0.8-3.1-2.1c-0.3-0.6-0.4-1.4-0.2-2.2c-2.9-0.3-5.3-1.1-5.3-1.1c1.7,5.1,6.5,7.9,11.1,7.9c2.7,0,5.4-1,7.3-3.1
			c0.5-0.5,0.9-1,1.3-1.4C37.9,79.9,39.2,78.6,41,77.5z M101.8,5.6h1.3c0.3,1.1,0.9,2,1.6,2.7h2.6c-0.7-0.4-1.3-1-1.7-1.8
			c-0.7-1.2-1.1-2.8-1.2-4.4h-3.9c0,1.6-0.4,3.2-1.2,4.4c-0.5,0.8-1.1,1.4-1.7,1.8h2.7C100.9,7.7,101.5,6.7,101.8,5.6z M56,21.3
			c0.7,0.9,1.2,1.9,1.6,2.9l2.1-2l0,0c-0.2-0.6-0.3-1.3-0.2-2c0,0,0-0.1,0-0.1l1.1,0.6c0,0.9,0.3,1.7,1.1,2.2
			c0.2,0.1,0.5,0.2,0.7,0.2c0,0,0,0,0,0l0-1c0.4,0,0.9-0.4,0.9-0.9c0-0.6-0.4-1-0.9-1.1v-1.2c0.9,0.2,1.7,0.7,1.9,1.5l1.3,0
			c0.1-0.9-0.4-1.8-1.4-2.1v-1.2c0.8,0.2,1.3,0.6,1.7,0.9c0.1,0.1,0.2,0.2,0.3,0.3l0.9,0c0-0.9-0.4-1.7-1.3-2v-1.2
			c0.5,0.1,1,0.3,1.4,0.7h0.9c0-0.6-0.4-1.2-0.8-1.5l0,0c-0.4-0.3-0.9-0.5-1.4-0.5c-0.2,0-0.4,0-0.6,0l0,0c-0.2,0-0.4,0-0.6,0.1
			c-0.5,0.1-1,0.3-1.5,0.6c-0.8,0.5-1.5,1.1-2.2,1.7c-1.1,0.9-2.2,2-3.4,2.8c-0.4,0.3-1.5,1.2-2.4,1.9C55.5,20.7,55.8,21,56,21.3z
			 M56.7,12.4c0.2-0.9-0.3-1.6-1.2-1.8c0,0-0.1,0-0.1,0c0.2,0.8,0.1,1.6-0.4,2.5c-0.4,0.6-1,1-1.7,1.3c0.2,0,0.5,0,0.7,0
			C55.6,14.4,56.4,13.7,56.7,12.4z"/>
		<g>
			<g>
				<ellipse class="st1" cx="89.1" cy="12.6" rx="3.4" ry="1.7"/>
				<polygon class="st1" points="79.5,12.6 75.7,10.7 71.9,12.6 75.7,14.5 				"/>
				<polygon class="st1" points="106.4,12.6 102.6,10.7 98.8,12.6 102.6,14.5 				"/>
				<path class="st1" d="M160.3,76.6c0,0-2.3,0.7-5.1,1.1c0.9-0.8,1.5-1.9,1.7-3.1c0.1-0.9,0.1-3.6-0.2-7.9c-0.1-1.5-1.2-2.8-2.7-3
					c-1.4-0.2-2.6-0.4-3.3-0.6c-1.6-0.4-2.5-0.9-2.6-1.4c-0.2-0.5-0.1-0.5-0.1-0.9c0-0.2,0.1-0.4,0.1-0.7c0-0.3,0.1-0.7,0.1-1
					c0.1-0.4,0.1-0.9,0.1-1.3c0,0,0-0.1,0-0.1c0.4,0.1,0.7,0.1,1.1,0.1c1,0,2-0.3,2.9-0.8c1.6-1,2.6-2.7,2.5-4.6
					c-0.1-3-1.8-5.2-3.3-7c-0.7-0.9-1.3-1.7-1.8-2.5c-1.5-2.8-1.9-5.8-1.1-8.9c0.3-1.3,1.2-2.6,2.1-4c0.2-0.3,0.4-0.6,0.6-0.9
					c0.1,0,0.3,0,0.4,0c0.6,0,1-0.2,1.4-0.4c2.2-1.3,2.9-5.7,2.9-8.2c-0.1-5.2-2.1-8.9-6.2-11.4l-1.4-0.9l0.5,1.6
					c1.2,3.6,1.9,5.8,1.1,9.4c-0.2,1.2-0.7,2.3-1.2,3.3c-0.7,1.7-1.5,3.3-0.8,4.6c-0.2,0.2-0.3,0.5-0.5,0.7c-1,1.6-2.1,3.2-2.6,5.1
					c-1.1,4.1-0.6,8.2,1.4,11.7c0.6,1.1,1.4,2.1,2.2,3.1c1.3,1.6,2.4,3,2.4,4.7c0,0.7-0.5,1.1-0.7,1.3c-0.5,0.3-1.2,0.3-1.7,0.1
					c-0.4-0.2-0.9-0.7-1.1-1.2c-0.4-1.2-0.9-2.5-1.7-3.9c-0.6-1.3-1.3-2.6-2-3.8c-1.3-2.3-2.4-4.4-3.3-6.8c-0.7-1.8-0.7-3.9-0.7-5.2
					c0.9,0.2,1.8,0.2,1.9,0.2l1.2,0l0-1.2c0-0.9,0.7-2.5,1.6-4.4c2.3-5.1,5.8-12.7,1.3-21.5c0-0.1-0.1-0.1-0.1-0.2
					c0.2-0.6,0.2-1.2,0.2-1.6c0-1.7-0.9-3-1.6-3.7L143.9,0l-0.7,0.2c-0.4,0.2-0.9,0.4-1.3,0.7c-0.3-0.3-0.6-0.5-1.1-0.5
					c-0.1,0-0.2,0-0.4,0c-1.8,0-8.5,1.5-9.4,2l-0.5,0.2l-0.2,0.5l-0.3,1.1c-1.5,0.5-2.8,1.2-3.8,1.8c-0.1,0.1-0.3,0.2-0.4,0.2
					l-0.8,0.4l0.2,0.9c0,0.1,0.7,3.5,2.6,5.7l0.1,0.1c-0.5,0-0.9,0.1-1.3,0.1c-1.2,0-2.1-0.3-2.5-1c-0.7-1.1-0.2-2.2,0.6-2.8
					c-0.4-0.2-0.9-0.3-1.4-0.3c-0.3,0-0.6,0-1,0.1c-1.5,0.3-2.4,1.6-2.1,3.1c0.3,1.8,1.6,3,3.9,3c0.5,0,0.9,0,1.5-0.1
					c0.8-0.1,1.5-0.4,2.3-0.6c0,0,0,0.1,0,0.1c-0.2,1.1-0.4,2,0.2,2.7c-1.6,0.3-3.1,1-4.4,2c-1-0.8-2.4-1.8-2.6-2
					c-0.8-0.6-1.6-1.3-2.4-2c-0.3-0.3-0.7-0.6-1-0.9c-0.7-0.6-1.5-1.2-2.3-1.8c-0.6-0.4-1.3-0.7-2.1-0.8V9c2.4-1.1,4.1-3.5,4.1-6.3
					c0-0.6-0.1-1.2-0.2-1.8h-5.1c0,0.3,0.1,0.7,0.1,1c0,3-1.5,5.7-3.4,5.7c-1.9,0-3.4-2.7-3.4-5.7c0-0.4,0-0.7,0.1-1h-6.4
					c0,0.3,0.1,0.7,0.1,1c0,3-1.5,5.7-3.4,5.7c-1.9,0-3.4-2.7-3.4-5.7c0-0.4,0-0.7,0.1-1h-6.6c0,0.3,0.1,0.7,0.1,1
					c0,3-1.5,5.7-3.4,5.7c-1.9,0-3.4-2.7-3.4-5.7c0-0.4,0-0.7,0.1-1H73c0,0.3,0.1,0.7,0.1,1c0,3-1.5,5.7-3.4,5.7S66.3,5,66.3,1.9
					c0-0.4,0-0.7,0.1-1h-5.2C61,1.4,60.9,2,60.9,2.6c0,2.7,1.6,5.1,3.8,6.2v3.5c-0.8,0.1-1.5,0.4-2.1,0.8c-0.8,0.6-1.6,1.2-2.3,1.8
					c-0.3,0.3-0.7,0.6-1,0.9c-0.8,0.7-1.6,1.3-2.4,2c-0.2,0.2-1.6,1.2-2.6,2c-1.3-1-2.7-1.7-4.4-2c0.6-0.8,0.4-1.7,0.2-2.7
					c0,0,0-0.1,0-0.1c0.8,0.3,1.6,0.5,2.3,0.6c0.5,0.1,1,0.1,1.5,0.1c2.2,0,3.5-1.1,3.9-3c0.3-1.5-0.6-2.8-2.1-3.1
					c-0.4-0.1-0.7-0.1-1-0.1c-0.5,0-0.9,0.1-1.4,0.3c0.8,0.6,1.3,1.7,0.6,2.8c-0.4,0.7-1.4,1-2.5,1c-0.4,0-0.8,0-1.2-0.1l0.1-0.1
					c1.9-2.3,2.6-5.6,2.6-5.7l0.2-0.9l-0.8-0.4c-0.1-0.1-0.3-0.1-0.4-0.2c-1-0.6-2.4-1.3-3.8-1.8l-0.3-1.1l-0.2-0.5l-0.5-0.2
					c-0.9-0.5-7.6-2-9.4-2c-0.1,0-0.3,0-0.4,0C37,0.5,36.6,0.7,36.3,1c-0.4-0.3-0.9-0.6-1.3-0.7L34.4,0l-0.6,0.4
					c-0.8,0.7-1.6,2-1.6,3.7c0,0.5,0.1,1,0.2,1.6c0,0.1-0.1,0.1-0.1,0.2c-4.5,8.8-1,16.4,1.3,21.5c0.8,1.9,1.6,3.5,1.6,4.4l0,1.2
					l1.2,0c0.1,0,1,0,1.9-0.2c0,1.3,0,3.4-0.7,5.2c-0.9,2.3-2.1,4.5-3.3,6.8c-0.7,1.2-1.4,2.5-2,3.8c-0.7,1.4-1.3,2.7-1.7,3.9
					c-0.3,0.5-0.7,1-1.1,1.2c-0.6,0.3-1.2,0.3-1.7-0.1c-0.3-0.2-0.7-0.6-0.7-1.3c0-1.7,1.1-3.1,2.4-4.7c0.8-0.9,1.5-1.9,2.2-3.1
					c2-3.6,2.5-7.6,1.4-11.7c-0.5-1.9-1.6-3.6-2.6-5.1c-0.2-0.2-0.3-0.5-0.5-0.7c0.6-1.3-0.1-2.9-0.8-4.6c-0.5-1.1-1-2.2-1.2-3.3
					c-0.8-3.6-0.1-5.8,1.1-9.4l0.5-1.6L28.3,9c-4.1,2.5-6.1,6.2-6.2,11.4c0,2.5,0.7,6.9,2.9,8.2c0.3,0.2,0.8,0.4,1.4,0.4
					c0.1,0,0.2,0,0.4,0c0.2,0.3,0.4,0.6,0.6,0.9c0.9,1.4,1.8,2.7,2.1,4c0.8,3.2,0.5,6.2-1.1,8.9c-0.5,0.9-1.1,1.7-1.8,2.5
					c-1.5,1.9-3.2,4-3.3,7c0,1.9,0.9,3.6,2.5,4.6c0.9,0.6,1.9,0.8,2.9,0.8c0.4,0,0.7,0,1.1-0.1c0,0,0,0.1,0,0.1
					c0,0.5,0.1,0.9,0.1,1.3c0,0.4,0.1,0.7,0.1,1c0,0.3,0.1,0.5,0.1,0.7c0.1,0.4,0.1,0.5-0.1,0.9c-0.1,0.4-1,1-2.6,1.4
					c-0.8,0.2-1.9,0.4-3.3,0.6c-1.5,0.2-2.7,1.5-2.7,3c-0.2,4.2-0.3,6.9-0.2,7.9c0.2,1.3,0.8,2.4,1.7,3.1c-2.8-0.3-5-1.1-5.1-1.1
					l-2.3-0.8l0.8,2.3c0.9,2.7,2.6,4.9,4.9,6.5c2.2,1.5,4.8,2.3,7.3,2.3c3.1,0,6-1.2,8.1-3.3c0,0.6,0.1,1.2,0.4,1.7l1,2.6l1.2-2.5
					c0.1-0.2,1.8-3.9,6.1-4.2c1.8-0.1,3.9-0.4,5.4-1.7c0,0,0,0,0,0c0,0.4,0,0.9,0.2,1.3c0.6,2.4,2.6,3.5,2.7,3.6l1.9,1.1l-0.1-2.2
					c0-0.9-0.1-2,0.2-2.9c0.5-1.6,2.1-2.2,3.1-2.4c0.2-0.1,0.5-0.1,0.7-0.2c1.5-0.3,2.8-0.6,4.1-1.4c-0.6,1.1-0.8,2.2-0.7,3.3
					c0.3,2.8,2.5,4.5,2.6,4.6l2.6,2L67.3,83c-0.3-1.2-0.5-4,0.6-4.7c1.4-0.9,2.4-1,3.6-1.2c1-0.1,2.1-0.2,3.4-0.8
					c-1,2.2-0.6,4-0.5,4.1l0.6,2.4l1.5-2c0,0,2.8-3.7,6.8-3.7c2.9,0,5.2,1.4,5.2,1.4l0.6,0.4l0.6-0.4c0,0,2.4-1.4,5.2-1.4
					c4,0,6.8,3.6,6.8,3.7l1.5,2l0.6-2.4c0-0.1,0.5-1.9-0.5-4.1c1.3,0.6,2.4,0.7,3.4,0.8c1.2,0.1,2.3,0.3,3.6,1.2
					c1.1,0.7,0.9,3.5,0.6,4.7l-0.7,3.2l2.6-2c0.1-0.1,2.4-1.8,2.6-4.6c0.1-1.1-0.1-2.2-0.7-3.3c1.3,0.7,2.5,1,4.1,1.4
					c0.2,0.1,0.4,0.1,0.7,0.2c0.9,0.2,2.6,0.8,3.1,2.4c0.3,0.9,0.2,1.9,0.2,2.9l-0.1,2.2l1.9-1.1c0.1-0.1,2.1-1.2,2.7-3.6
					c0.1-0.4,0.2-0.9,0.2-1.3c0,0,0,0,0,0c1.6,1.3,3.6,1.6,5.4,1.7c4.2,0.3,6,4,6.1,4.2l1.2,2.5l1-2.6c0.2-0.6,0.4-1.2,0.4-1.7
					c2.1,2.1,4.9,3.3,8.1,3.3c2.6,0,5.2-0.8,7.3-2.3c2.3-1.6,4-3.8,4.9-6.5l0.8-2.3L160.3,76.6z M124.3,14.4c-1.6,0-2.4-0.6-2.7-2
					c-0.2-0.9,0.3-1.6,1.2-1.8c0,0,0.1,0,0.1,0c-0.2,0.8-0.1,1.6,0.4,2.5c0.4,0.6,1,1,1.7,1.3C124.7,14.4,124.5,14.4,124.3,14.4z
					 M55,13c0.5-0.8,0.6-1.7,0.4-2.5c0,0,0.1,0,0.1,0c0.9,0.2,1.3,0.9,1.2,1.8c-0.2,1.4-1.1,2-2.7,2c-0.2,0-0.5,0-0.7,0
					C54,14.1,54.6,13.7,55,13z M124,21.2c0.3-0.3,0.6-0.6,0.9-0.8c1.4-1.1,3.2-1.7,5.4-1.7c0.3,0,0.6,0,1,0l3-1.4
					c-1.1,0-2,0.1-2.7,0.1c-3,0-2.8-0.4-2.4-2.5c0,0,2.6,0.7,4.5,0.7c0.2,0,0.4,0,0.6,0c0.9-0.1,1.4-0.5,1.5-1
					c0.2-0.7,0.2-1.7-0.3-3.1c-0.3-0.9-1.2-1.6-2.4-1.6c-0.9,0-2,0.4-3.3,1.6l-1.1,1.1c-0.6-0.6-1-1.4-1.3-2.1
					c-0.2-1,0.8-1.6,0.8-1.6c-1.1,0.1-1.6-1-1.8-1.5c1.2-0.6,2.8-1.6,4.6-2l0.5-1.7c0.7-0.3,7.2-1.8,8.9-1.8c0.1,0,0.2,0,0.2,0
					c0.1,0,0.3,0.1,0.4,0.2c-0.4,0.4-0.7,0.9-1,1.3l1.2,0.4c0.6-1,1.5-1.9,2.3-2.2c1,0.9,2.3,3.6-0.5,6.5v1.7l0.5-0.5
					c0.7-0.6,1.1-1.2,1.5-1.8c5.3,11.4-3.4,20.7-3.3,24.7c0,0-1.8-0.1-3-0.6c0,0-0.6,3.9,0.7,7.2c1.4,3.8,3.6,7.1,5.4,10.7
					c0.6,1.2,1.1,2.4,1.6,3.7c0,0,0,0.1,0,0.1c0.4,0.8,1,1.5,1.7,1.8c0,0,0.1,0,0.1,0c0.9,0.5,1.9,0.4,2.8-0.1
					c0.9-0.5,1.3-1.4,1.3-2.4c-0.1-2.2-1.3-3.8-2.7-5.4c-0.7-0.9-1.5-1.8-2.1-2.9c-1.8-3.3-2.3-7.1-1.3-10.9
					c0.5-1.7,1.5-3.3,2.5-4.8c0.2-0.3,0.4-0.7,0.7-1c0.1-0.1,0.2-0.3,0.2-0.4c-0.5-0.4-0.6-1-0.4-1.7c0.1-0.6,0.5-1.4,0.9-2.4
					c0.5-1.1,1-2.3,1.3-3.5c0.4-2,0.4-3.7,0.2-5.3c0.4,0.6,0.7,1.3,1,2c0.3,0.8,0.6,1.6,0.7,2.5c0.1,0.9,0.1,1.8,0,2.7
					c0.3-0.8,0.5-1.7,0.6-2.7c0.1-0.9,0-1.9-0.2-2.8c-0.2-0.8-0.4-1.7-0.7-2.5c1.3,1.9,2,4.2,2,7.1c0,3.5-1.2,6.5-2.3,7.2
					c-0.2,0.1-0.3,0.2-0.4,0.2c-0.5,0.1-1.3-0.2-1.3-0.2c-0.3,0.6-0.7,1.1-1,1.6c-1,1.5-1.9,2.8-2.3,4.3c-0.9,3.5-0.5,6.8,1.2,9.8
					c0.5,0.9,1.2,1.8,1.9,2.7c1.4,1.8,2.9,3.7,3,6.3c0,1.5-0.7,2.8-2,3.6c-0.7,0.4-1.5,0.6-2.3,0.6c-0.4,0-0.7-0.1-1.1-0.1
					c-0.3-0.1-0.6-0.2-0.9-0.4c-0.1-0.1-0.2-0.1-0.3-0.2c0.1,0.5,0.1,0.9,0.1,1.4c0,0.1,0,0.2,0,0.4c-0.1,0.8-0.2,1.6-0.2,2.4
					c-0.1,1-0.3,1.1,0,2.1c0.4,1.1,1.9,1.8,3.5,2.2c1,0.2,2.4,0.4,3.4,0.6c0.9,0.1,1.7,0.9,1.7,1.9c0.1,2.3,0.3,6.5,0.2,7.6
					c-0.2,1.3-0.9,2.4-2.1,2.9c0.1,0.2,0.2,0.3,0.2,0.5c0.2,0.4,0.3,0.8,0.4,1.2c0.4,2.1-1.1,2.7-2.4,3l-0.2-1.9
					c0-0.1-0.4-0.2-0.5-0.3c-0.1-0.1-0.2-0.2-0.3-0.2c-0.2-0.2-0.3-0.5-0.3-0.7c0-0.2,0-0.3,0-0.5c0-0.3-0.1-0.6-0.2-0.8
					c-0.1-0.1-0.2-0.2-0.3-0.2c-0.1-0.1-0.2-0.1-0.3-0.1c-0.1,0-0.2,0-0.4,0.1c-0.2,0.1-0.5,0.4-0.5,0.7c0,0.1,0,0.3,0,0.4
					c0.1,0.6,0.4,1.3,0.1,2c-0.2,0.4-0.7,1-1.4,1c-0.2,0-0.4-0.1-0.6-0.2l-1.3,1.2c-1.8-1.9-1.2-3.8,0.7-4.6
					c0.2-0.1,0.3-0.1,0.4-0.2c0.4-0.2,0.6-0.6,0.4-0.9c-0.2-0.3-0.3-0.4-0.6-0.4c-0.3,0-0.8,0.2-1.4,0.5c0,0-0.1,0-0.1,0.1
					c-0.4,0.1-0.7,0.2-1,0.2c-0.7,0-1.2-0.4-1.5-1.5c0-0.1,0-0.2-0.1-0.3l-0.5,0.2l-0.8,0.3c0-0.1,0-0.3,0.1-0.4
					c0.1-0.5,0.2-0.8,0.4-1.2c0.6-1.1,1.6-1.5,2.7-1.5c1.4,0,2.8,0.7,3.4,1.6l2.5,0.3c0.5-0.6,0.5-2.5,0.5-4c-0.1-1.1-0.9-2-1.9-2.1
					c-1.8-0.3-4.6-0.7-5.5-0.7c-1.8-0.1-3.8-0.5-5.1-1.8c-1.9-1.9-2.3-3.8-2.3-6.5c0-0.9,0-1.8,0.1-2.7c0.1-0.8,0.2-1.6,0.2-2.3
					c0.1-0.5,0.1-1,0.2-1.5c0.1-0.5,0.1-1,0-1.5c0-0.2,0-0.4-0.1-0.6c-0.1-0.6-0.2-1.1-0.5-1.6c-0.2-0.6-0.6-1.1-0.9-1.6
					c-0.6-0.8-1.4-1.5-2.4-2.1c-0.4-0.2-0.8-0.5-1.3-0.7s-0.9-0.6-1.5-0.9c-1.3-0.8-2.6-1.9-3.9-3.1c0.1-0.1,0.2-0.1,0.3-0.2
					c0.5-0.3,1.8-1.3,3-2.3c0.3-0.2,0.6-0.5,0.8-0.7l-1.2-0.6c-1.4,1.2-2.9,2.3-3.3,2.5c-0.2,0.1-0.4,0.2-0.6,0.3
					c-0.4,0.2-0.7,0.4-1.1,0.6c-2,1.1-3.4,1.9-3.4,3.2c2.5,2.7,1.1,4.2-0.2,4.7l-0.5-1.5l0,0l0,0c-1.4-0.2-1.4-1.3-1.5-2.1
					c0-0.4-0.4-0.7-0.7-0.7c-0.3,0-0.6,0.2-0.6,0.6c0,0.5,0,1-0.1,1.7c-0.1,0.5-0.7,1.3-1.5,1.3c-0.1,0-0.3,0-0.4-0.1l-0.3,1.7
					c-2.8-0.5-2.5-3.3-0.6-4.3c1.1-0.6,1.4-0.9,1.1-1.4c-0.1-0.1-0.2-0.2-0.3-0.2c-0.4,0-1,0.4-1.6,0.9c-0.2,0.2-0.6,0.3-0.9,0.3
					c-0.7,0-1.5-0.5-1.9-1.6l-1,0.6c-0.2-2.1,1.1-3.1,2.5-3.1c0.6,0,1.3,0.2,1.8,0.7c0.2,0.2,0.4,0.2,0.6,0.2c0.6,0,1-0.8,0.2-1.2
					c-0.8-0.4-1.5-1.7-0.8-2.5l-1.2-1.1c0.5-0.3,1.1-0.5,1.6-0.5c1.2,0,2.3,0.8,2.6,2.5c0.1,0.4,0.2,0.6,0.5,0.6l0,0l0,0
					c0.6,0,1.8-1.4,2.6-2.8c0.2-0.3,0.4-0.7,0.6-1c0.2-0.4,0.5-0.9,0.8-1.3c0.4-0.5,0.7-1,1.2-1.5c0.8-0.8,2.2-2.2,3.8-3.1
					c0.4-0.2,0.8-0.4,1.2-0.6c0.5-0.6,0.9-1.3,1.4-1.9c1.1-1.7,2-3.5,2.6-5.4c-0.9,1.8-2.1,3.4-3.4,4.8c-0.6,0.7-1.3,1.3-2,1.9
					c-1.8,0.9-3.4,2.5-4.3,3.4l-0.1,0.1c-0.3,0.3-0.5,0.5-0.7,0.8c-0.3-1.9-0.2-4.2,0.4-6.3c0.1-0.4,0.2-0.9,0.4-1.3
					C122.1,23.6,122.9,22.3,124,21.2z M131.1,13.7c0.7-0.2,1.4-0.4,2.1-0.4c0.6,0,1.1,0.1,1.6,0.4c0,0.2-0.1,0.4-0.1,0.5
					c0,0,0,0,0,0s-0.1,0.1-0.5,0.1c-0.1,0-0.3,0-0.5,0c-0.7,0-1.6-0.1-2.3-0.2c-0.7-0.1-1.9-0.4-1.9-0.4c-0.1-0.6,0-1.3,0.2-1.2
					C130.1,12.5,130.3,13.2,131.1,13.7z M130.3,12.7l0.5-0.5c1.1-1,2-1.3,2.4-1.3c0.9,0,1.2,0.7,1.3,0.9c0.1,0.2,0.1,0.4,0.2,0.6
					c-0.5-0.2-0.9-0.3-1.5-0.3C132.2,12.1,131.3,12.4,130.3,12.7z M138.1,71.2c-1.4,0.9-2.7,1.4-4.1,1.4c-1.3,0-2.5-0.4-3.9-0.8
					c-0.4-0.1-0.7-0.2-1.1-0.3c-0.6-0.2-1.2-0.2-1.8-0.2c-1.5,0-2.8,0.5-3.7,0.9c0.1-0.3,0.4-1.5,0.4-2.5c1.1-0.6,1.9-1.5,2.3-2.7
					c0.6-1.7,1-4.8,0.6-8.1c0.9-0.1,2.2-0.3,3.4-0.5c1.4-0.2,2.5-0.5,3.4-0.7c0.4-0.1,0.7-0.2,1-0.3c0,0.7-0.1,1.3-0.1,2
					c0,1.7,0.2,2.9,0.5,4c0.4,1.3,1.1,2.4,2.2,3.4c1.7,1.7,3.9,2,5.9,2.1c0.7,0.1,2.6,0.3,5.4,0.7c0.5,0.1,0.9,0.5,0.9,1
					c0.1,1.4,0,2.2-0.1,2.6l-1.1-0.2c-0.9-1-2.5-1.6-4-1.6c-1.9,0-3.4,1-4,2.7c-0.3,0-0.7,0.1-1.1,0.2c0.7-1.1,0.8-2.1,0.8-2.3
					l0.1-2.4L138.1,71.2z M119.1,71.4c-0.1-0.1-0.2-0.2-0.3-0.3c0,0,0-0.1-0.1-0.1c-0.2-0.4-0.2-0.8-0.1-1.3l0,0
					c0.1-0.4,0.1-0.9-0.3-1.2c-0.2-0.1-0.3-0.2-0.5-0.2c-0.1,0-0.2,0-0.3,0.1c-0.3,0.1-0.5,0.3-0.6,0.6c-0.1,0.2-0.1,0.4-0.1,0.6
					c0,0.2,0,0.4,0,0.7c0,0.4,0,0.8-0.2,1.2c0,0,0,0.1-0.1,0.1c-0.2,0.4-0.8,0.9-1.5,0.9c-0.3,0-0.6-0.1-0.8-0.3l-1.7,1c0,0,0,0,0,0
					c-0.1-0.2-0.2-0.3-0.3-0.5c-0.2-0.4-0.3-0.8-0.4-1.1c-0.3-1.6,0.6-2.8,2.3-3.1c0.7-0.2,1.2-0.5,1-1.1l0,0
					c-0.1-0.4-0.4-0.5-0.7-0.5c-0.4,0-0.9,0.1-1.6,0.3c-0.2,0-0.4,0.1-0.6,0.1c-0.2,0-0.3,0-0.5,0l0,0c-0.7,0-1.2-0.4-1.2-1.8
					l-1.4,0.3c0.6-2.3,2-3.1,3.3-3.1c1.4,0,2.9,0.9,3.8,2.2l0,0l0.6,0.2l1,0.3l2,0.7c2-1.7,1.1-6,1.1-6s-3.8-2.1-2.5-6.9
					c0,0,0.7-4.5,8.8-4.5c0.9,0,1.8,0.1,2.9,0.2c0.6,0.1,1.2,0.2,1.7,0.2c0,0,0,0,0,0c-0.2,0.4-0.2,0.9-0.2,1.4
					c0.1,0.7,0.6,1.4,1.3,1.7c0.3,0.2,0.7,0.3,1.1,0.3c0.4,0,0.8-0.1,1.2-0.3c0,0.2,0,0.4,0,0.6c-0.2,1.1-0.3,2.2-0.4,3.4
					c-1.7,0.8-9.3,1.8-9.3,1.8c0.7,3.6,0.3,7-0.3,8.7c-0.2,0.6-0.6,1.1-1,1.5c-0.4,0.3-0.8,0.6-1.3,0.8c-0.1,1.3-0.2,2.2-0.4,2.9
					c-0.1,0.3-0.2,0.5-0.3,0.7c-0.6,1-1.7,1.2-2.8,1.3l0.2-2C119.5,71.7,119.1,71.5,119.1,71.4z M121.8,43.4
					c0.3-0.5,1.4-1.1,2.5-1.7c0.1-0.1,0.3-0.2,0.4-0.2c0.2,0.2,0.4,0.4,0.6,0.6c0.5,0.5,1,0.9,1.6,1.3l0,0l0,0l2.6,2.7
					c0.7,0.7,1.2,1.3,1.5,1.7l-3.8-0.3l0,0c-1.9,0-3.4,0.2-4.6,0.6c0.2-0.3,0.3-0.6,0.4-0.9C123.3,45.8,122.6,44.4,121.8,43.4z
					 M132.6,48L132.6,48c-0.2-0.4-0.6-1-1.2-1.7c0.2,0.1,0.3,0.2,0.5,0.3c0.9,0.5,1.6,1.1,2.1,1.8c0.4,0.5,0.7,1.1,0.9,1.7
					c0.1,0.2,0.1,0.4,0.2,0.6c-0.2,0.4-0.6,0.6-1,0.6c-0.2,0-0.3,0-0.5-0.1c-0.6-0.3-0.9-1.2-0.4-1.8c0-0.1,0.1-0.1,0.1-0.2
					C133,48.9,132.8,48.5,132.6,48z M114.9,14.1c0.8,0.5,1.5,1.1,2.2,1.7c1.1,0.9,2.2,2,3.4,2.8c0.4,0.3,1.5,1.2,2.4,1.9
					c-0.3,0.3-0.5,0.6-0.8,0.9c-0.7,0.9-1.2,1.9-1.6,2.9l-2.1-2c0.2-0.6,0.3-1.3,0.2-2c0,0,0-0.1,0-0.1l-1.1,0.6
					c0,0.9-0.3,1.7-1.1,2.2c-0.2,0.1-0.5,0.2-0.7,0.2c0,0,0,0,0,0l0-1c-0.4,0-0.9-0.4-0.9-0.9c0-0.6,0.4-1,0.9-1.1v-1.2
					c-0.9,0.2-1.7,0.7-1.9,1.5l-1.3,0c-0.1-0.9,0.4-1.8,1.4-2.1v-1.2c-0.8,0.2-1.3,0.6-1.7,0.9c-0.1,0.1-0.2,0.2-0.3,0.3l-0.9,0
					c0-0.9,0.4-1.7,1.3-2v-1.2c-0.5,0.1-1,0.3-1.4,0.7H110c0-0.6,0.4-1.2,0.8-1.5l0,0c0.4-0.3,0.9-0.5,1.5-0.5c0.2,0,0.3,0,0.5,0
					l0,0c0.2,0,0.5,0,0.7,0.1C114,13.6,114.5,13.8,114.9,14.1z M112.4,6.5c0.7-1.2,1.1-2.8,1.2-4.4h2.9c0,0.2,0,0.4,0,0.6
					c0,3.1-2.5,5.7-5.6,5.7h-0.2C111.3,7.9,111.9,7.3,112.4,6.5z M99.3,6.5c0.7-1.2,1.1-2.8,1.2-4.4h3.9c0,1.6,0.4,3.2,1.2,4.4
					c0.5,0.8,1.1,1.5,1.7,1.8h-2.6c-0.7-0.7-1.2-1.6-1.6-2.7h-1.3c-0.3,1.1-0.9,2-1.6,2.7h-2.7C98.2,7.9,98.8,7.3,99.3,6.5z
					 M86.1,6.5c0.7-1.2,1.1-2.8,1.2-4.4h4.1c0,1.6,0.4,3.2,1.2,4.4c0.5,0.8,1.1,1.4,1.7,1.8h-2.8c-0.7-0.7-1.2-1.6-1.6-2.7h-1.3
					c-0.3,1.1-0.9,2-1.6,2.7h-2.7C85,7.9,85.6,7.3,86.1,6.5z M73.1,6.5c0.7-1.2,1.1-2.8,1.2-4.4H78c0,1.6,0.4,3.2,1.2,4.4
					c0.5,0.8,1.1,1.5,1.7,1.8h-2.7c-0.7-0.7-1.2-1.6-1.6-2.7h-1.3c-0.3,1.1-0.9,2-1.6,2.7h-2.5C72,7.9,72.6,7.3,73.1,6.5z M62.1,2.6
					c0-0.2,0-0.3,0-0.5h2.9c0,1.6,0.4,3.2,1.2,4.4c0.5,0.8,1.1,1.5,1.7,1.8h-0.3C64.7,8.3,62.1,5.7,62.1,2.6z M57.7,18.6
					c1.2-0.9,2.3-1.9,3.4-2.8c0.7-0.6,1.4-1.2,2.2-1.7c0.4-0.3,0.9-0.5,1.5-0.6c0.2,0,0.4-0.1,0.6-0.1l0,0c0.2,0,0.4,0,0.6,0
					c0.5,0.1,1,0.2,1.4,0.5l0,0c0.5,0.3,0.8,0.9,0.8,1.5h-0.9c-0.4-0.3-0.9-0.6-1.4-0.7v1.2c0.9,0.3,1.3,1.1,1.3,2l-0.9,0
					c-0.1-0.1-0.2-0.2-0.3-0.3c-0.3-0.3-0.9-0.7-1.7-0.9v1.2c0.9,0.3,1.4,1.2,1.4,2.1l-1.3,0c-0.3-0.8-1-1.3-1.9-1.5v1.2
					c0.5,0.2,0.9,0.5,0.9,1.1c0,0.6-0.5,0.9-0.9,0.9l0,1c0,0,0,0,0,0c-0.3,0-0.5-0.1-0.7-0.2c-0.8-0.4-1.1-1.3-1.1-2.2l-1.1-0.6
					c0,0,0,0.1,0,0.1c-0.1,0.7,0,1.4,0.2,2l0,0l-2.1,2c-0.4-1-1-2-1.6-2.9c-0.2-0.3-0.5-0.6-0.8-0.9C56.2,19.8,57.3,18.9,57.7,18.6z
					 M22.5,74.4c-0.2-1.2,0-5.3,0.2-7.6c0.1-0.9,0.8-1.7,1.7-1.9c1.1-0.2,2.4-0.4,3.4-0.6c1.6-0.3,3.1-1,3.5-2.2
					c0.3-1,0.1-1.1,0-2.1c-0.1-0.8-0.2-1.6-0.2-2.4c0-0.1,0-0.2,0-0.4c0-0.5,0-0.9,0.1-1.4C31,56,30.9,56,30.8,56.1
					c-0.3,0.2-0.6,0.3-0.9,0.4c-0.4,0.1-0.7,0.1-1.1,0.1c-0.8,0-1.6-0.2-2.3-0.6c-1.3-0.8-2-2.1-2-3.6c0.1-2.6,1.6-4.5,3-6.3
					c0.7-0.9,1.4-1.7,1.9-2.7c1.7-3,2.1-6.3,1.2-9.8c-0.4-1.5-1.3-2.9-2.3-4.3c-0.4-0.6-0.7-1.1-1-1.6c0,0-0.8,0.3-1.3,0.2
					c-0.1,0-0.3-0.1-0.4-0.2c-1.2-0.7-2.4-3.7-2.3-7.2c0-2.8,0.7-5.1,2-7.1c-0.3,0.8-0.5,1.6-0.7,2.5c-0.2,0.9-0.2,1.9-0.2,2.8
					c0.1,0.9,0.2,1.8,0.6,2.7c-0.1-0.9-0.1-1.8,0-2.7c0.1-0.9,0.3-1.7,0.7-2.5c0.3-0.7,0.6-1.4,1-2c-0.3,1.6-0.3,3.3,0.2,5.3
					c0.3,1.3,0.8,2.5,1.3,3.5c0.4,1,0.8,1.7,0.9,2.4c0.2,0.7,0.1,1.2-0.4,1.7c0.1,0.1,0.2,0.3,0.2,0.4c0.2,0.3,0.4,0.7,0.7,1
					c1,1.5,2,3,2.5,4.8c1,3.8,0.5,7.6-1.3,10.9c-0.6,1.1-1.3,2-2.1,2.9c-1.3,1.7-2.6,3.3-2.7,5.4c0,1,0.5,1.8,1.3,2.4
					c0.9,0.5,1.9,0.6,2.8,0.1c0,0,0.1,0,0.1,0c0.7-0.4,1.3-1,1.7-1.8c0,0,0-0.1,0-0.1c0.4-1.3,1-2.5,1.6-3.7c1.8-3.6,4-6.9,5.4-10.7
					c1.2-3.2,0.7-7.2,0.7-7.2c-1.2,0.5-3,0.6-3,0.6c0.1-4-8.6-13.4-3.3-24.7c0.4,0.6,0.8,1.2,1.5,1.8L35,9.5V7.8
					c-2.8-2.8-1.5-5.6-0.5-6.5c0.8,0.3,1.7,1.1,2.3,2.2l1.2-0.4c-0.3-0.5-0.6-0.9-1-1.3c0.1-0.1,0.2-0.1,0.4-0.2c0.1,0,0.1,0,0.2,0
					c1.7,0,8.2,1.5,8.9,1.8l0.6,1.7c1.8,0.5,3.4,1.4,4.6,2c-0.2,0.5-0.7,1.6-1.8,1.5c0,0,1,0.6,0.8,1.6c-0.3,0.7-0.8,1.5-1.3,2.1
					l-1.1-1.1c-1.3-1.2-2.4-1.6-3.3-1.6c-1.2,0-2,0.8-2.4,1.6c-0.5,1.3-0.5,2.4-0.3,3.1c0.2,0.5,0.6,0.9,1.5,1c0.2,0,0.4,0,0.6,0
					c2,0,4.5-0.7,4.5-0.7c0.4,2.1,0.6,2.5-2.4,2.5c-0.7,0-1.6,0-2.7-0.1l3,1.4c0.3,0,0.7,0,1,0c2.2,0,4,0.7,5.4,1.7
					c0.3,0.2,0.6,0.5,0.9,0.8c1.1,1.1,1.9,2.5,2.4,3.9c0.2,0.4,0.3,0.8,0.4,1.3c0.6,2.2,0.7,4.5,0.4,6.3c-0.2-0.3-0.5-0.6-0.7-0.8
					l-0.1-0.1c-0.9-0.9-2.4-2.4-4.3-3.4c-0.7-0.6-1.3-1.2-2-1.9c-1.3-1.4-2.5-3-3.4-4.8c0.6,1.9,1.5,3.8,2.6,5.4
					c0.4,0.7,0.9,1.3,1.4,1.9c0.4,0.2,0.8,0.4,1.2,0.6c1.6,0.9,3,2.3,3.8,3.1c0.5,0.5,0.9,1,1.2,1.5c0.3,0.4,0.5,0.8,0.8,1.3
					c0.2,0.3,0.4,0.7,0.6,1c0.9,1.4,2,2.8,2.6,2.8l0,0l0,0c0.2,0,0.4-0.2,0.5-0.6c0.3-1.7,1.4-2.5,2.6-2.5c0.6,0,1.1,0.2,1.6,0.5
					l-1.2,1.1c0.7,0.8,0,2.1-0.8,2.5c-0.8,0.4-0.4,1.2,0.2,1.2c0.2,0,0.4-0.1,0.6-0.2c0.5-0.5,1.1-0.7,1.8-0.7c1.3,0,2.6,1,2.5,3.1
					l-1-0.6c-0.3,1.1-1.1,1.6-1.9,1.6c-0.3,0-0.7-0.1-0.9-0.3c-0.6-0.4-1.2-0.9-1.6-0.9c-0.1,0-0.3,0.1-0.3,0.2
					c-0.3,0.4,0,0.8,1.1,1.4c1.9,0.9,2.2,3.7-0.6,4.3l-0.3-1.7c-0.1,0-0.3,0.1-0.4,0.1c-0.8,0-1.4-0.7-1.5-1.3
					c-0.1-0.8-0.1-1.3-0.1-1.7c0-0.4-0.3-0.6-0.6-0.6c-0.3,0-0.7,0.2-0.7,0.7c-0.1,0.8,0,1.9-1.5,2.1l0,0l-0.5,1.5
					c-1.4-0.5-2.7-2-0.2-4.7c0-1.3-1.4-2.1-3.4-3.2c-0.3-0.2-0.7-0.4-1.1-0.6c-0.2-0.1-0.4-0.2-0.6-0.3c-0.4-0.2-1.9-1.4-3.3-2.5
					l-1.2,0.6c0.2,0.2,0.5,0.4,0.8,0.7c1.2,1,2.5,2,3,2.3c0.1,0.1,0.2,0.1,0.3,0.2c-1.3,1.2-2.7,2.2-3.9,3.1c-0.5,0.3-1,0.7-1.5,0.9
					c-0.5,0.3-0.9,0.5-1.3,0.7c-1,0.6-1.8,1.3-2.4,2.1c-0.4,0.5-0.7,1.1-0.9,1.6c-0.2,0.5-0.4,1.1-0.5,1.6c0,0.2-0.1,0.4-0.1,0.6
					c0,0.5,0,1,0,1.5c0.1,0.5,0.1,1,0.2,1.5c0.1,0.8,0.2,1.5,0.2,2.3c0.1,0.9,0.1,1.8,0.1,2.7c0,2.7-0.4,4.7-2.3,6.5
					c-1.4,1.3-3.3,1.7-5.1,1.8c-1,0.1-3.7,0.5-5.5,0.7c-1.1,0.2-1.9,1-1.9,2.1c-0.1,1.5-0.1,3.4,0.5,4l2.5-0.3
					c0.6-0.9,2-1.6,3.4-1.6c1.1,0,2.1,0.4,2.7,1.5c0.2,0.3,0.3,0.7,0.4,1.2c0,0.1,0,0.3,0.1,0.4l-0.8-0.3l-0.5-0.2
					c0,0.1,0,0.2-0.1,0.3c-0.3,1.1-0.8,1.5-1.5,1.5c-0.3,0-0.7-0.1-1-0.2c0,0-0.1,0-0.1-0.1c-0.6-0.3-1.1-0.5-1.4-0.5
					c-0.2,0-0.4,0.1-0.6,0.4c-0.2,0.4,0,0.7,0.4,0.9c0.1,0.1,0.3,0.2,0.4,0.2c1.9,0.8,2.5,2.7,0.7,4.6l-1.3-1.2
					c-0.2,0.1-0.4,0.2-0.6,0.2c-0.6,0-1.2-0.6-1.4-1c-0.2-0.7,0-1.4,0.1-2c0-0.2,0-0.3,0-0.4c0-0.3-0.2-0.6-0.5-0.7
					c-0.1-0.1-0.2-0.1-0.4-0.1c-0.1,0-0.2,0-0.3,0.1c-0.1,0.1-0.2,0.1-0.3,0.2c-0.2,0.2-0.2,0.5-0.2,0.8c0,0.2,0,0.3,0,0.5
					c0,0.3-0.1,0.5-0.3,0.7c-0.1,0.1-0.2,0.2-0.3,0.2c-0.1,0-0.4,0.2-0.5,0.3L26.4,82c-1.3-0.3-2.8-1-2.4-3c0.1-0.3,0.2-0.7,0.4-1.2
					c0.1-0.2,0.1-0.3,0.2-0.5C23.4,76.7,22.7,75.6,22.5,74.4z M45.1,13.2c0.7,0,1.4,0.2,2.1,0.4c0.8-0.5,1-1.1,1.3-1.2
					c0.2,0,0.3,0.6,0.2,1.2c0,0-1.1,0.2-1.9,0.4c-0.7,0.1-1.6,0.2-2.3,0.2c-0.2,0-0.3,0-0.5,0c-0.4,0-0.5-0.1-0.5-0.1c0,0,0,0,0,0
					c0-0.1-0.1-0.3-0.1-0.5C44,13.3,44.5,13.2,45.1,13.2z M43.6,12.4c0-0.2,0.1-0.4,0.2-0.6c0.1-0.2,0.4-0.9,1.3-0.9
					c0.5,0,1.3,0.2,2.4,1.3l0.5,0.5c-1-0.3-2-0.6-2.9-0.6C44.6,12.1,44.1,12.2,43.6,12.4z M58.4,66.1l2-0.7l1-0.3l0.6-0.2l0,0
					c0.9-1.3,2.4-2.2,3.8-2.2c1.4,0,2.7,0.9,3.3,3.1l-1.4-0.3c0,1.5-0.5,1.8-1.2,1.8l0,0c-0.2,0-0.3,0-0.5,0c-0.2,0-0.4-0.1-0.6-0.1
					c-0.7-0.1-1.2-0.3-1.6-0.3c-0.3,0-0.6,0.1-0.7,0.5l0,0c-0.2,0.6,0.3,0.9,1,1.1c1.7,0.4,2.6,1.6,2.3,3.1
					c-0.1,0.4-0.2,0.7-0.4,1.1c-0.1,0.2-0.2,0.3-0.3,0.5c0,0,0,0,0,0l-1.7-1c-0.2,0.2-0.5,0.3-0.8,0.3c-0.6,0-1.2-0.5-1.5-0.9
					c0,0,0-0.1-0.1-0.1c-0.2-0.4-0.2-0.8-0.2-1.2c0-0.2,0-0.5,0-0.7c0-0.2,0-0.5-0.1-0.6c-0.1-0.3-0.3-0.5-0.6-0.6
					c-0.1,0-0.2-0.1-0.3-0.1c-0.2,0-0.3,0.1-0.5,0.2c-0.4,0.3-0.4,0.7-0.3,1.2l0,0c0.1,0.5,0.1,0.9-0.1,1.3c0,0,0,0.1-0.1,0.1
					c-0.1,0.1-0.2,0.2-0.3,0.3c-0.1,0.1-0.4,0.3-0.4,0.4l0.2,2c-1.1-0.1-2.2-0.3-2.8-1.3c-0.1-0.2-0.2-0.4-0.3-0.7
					c-0.2-0.7-0.3-1.7-0.4-2.9c-0.5-0.2-0.9-0.4-1.3-0.8c-0.5-0.4-0.8-0.9-1-1.5c-0.6-1.7-1.1-5.1-0.3-8.7c0,0-7.6-0.9-9.3-1.8
					c-0.1-1.2-0.2-2.4-0.4-3.4c0-0.2,0-0.4,0-0.6c0.4,0.2,0.8,0.3,1.2,0.3c0.4,0,0.7-0.1,1.1-0.3c0.7-0.3,1.1-1,1.3-1.7
					c0.1-0.5,0-1-0.2-1.4c0,0,0,0,0,0c0.5-0.1,1.1-0.2,1.7-0.2c1-0.1,2-0.2,2.9-0.2c8.2,0,8.8,4.5,8.8,4.5c1.3,4.8-2.5,6.9-2.5,6.9
					S56.4,64.4,58.4,66.1z M38.3,72.2c0,0.1,0.1,1.2,0.8,2.3c-0.4-0.1-0.8-0.2-1.1-0.2c-0.6-1.7-2.1-2.7-4-2.7c-1.5,0-3.1,0.6-4,1.6
					l-1.1,0.2c-0.1-0.5-0.1-1.3-0.1-2.6c0-0.5,0.4-0.9,0.9-1c2.8-0.4,4.7-0.7,5.4-0.7c2-0.1,4.2-0.5,5.9-2.1c1-1,1.8-2.2,2.2-3.4
					c0.3-1.1,0.5-2.3,0.5-4c0-0.7,0-1.3-0.1-2c0.3,0.1,0.6,0.2,1,0.3c0.8,0.2,2,0.4,3.4,0.7c1.3,0.2,2.5,0.4,3.4,0.5
					c-0.5,3.3,0,6.4,0.6,8.1c0.4,1.1,1.2,2,2.3,2.7c0,1.2,0.4,2.4,0.4,2.5c-0.9-0.4-2.2-0.9-3.7-0.9c-0.6,0-1.3,0.1-1.8,0.2
					c-0.4,0.1-0.7,0.2-1.1,0.3c-1.3,0.4-2.6,0.8-3.9,0.8c-1.4,0-2.7-0.4-4.1-1.4l-2-1.3L38.3,72.2z M45.3,49.4
					c0.4,0.6,0.2,1.5-0.4,1.8c-0.2,0.1-0.3,0.1-0.5,0.1c-0.4,0-0.8-0.2-1-0.6c0-0.2,0.1-0.4,0.2-0.6c0.2-0.6,0.5-1.1,0.9-1.7
					c0.5-0.7,1.2-1.3,2.1-1.8c0.1-0.1,0.3-0.2,0.5-0.3c-0.6,0.7-1,1.3-1.2,1.7l0,0c-0.2,0.5-0.4,0.8-0.5,1.2
					C45.2,49.3,45.2,49.3,45.3,49.4z M52.9,42c0.2-0.2,0.4-0.4,0.6-0.6c0.2,0.1,0.3,0.2,0.4,0.2c1.1,0.6,2.2,1.2,2.5,1.7
					c-0.8,1-1.5,2.4-1.2,3.8c0.1,0.3,0.2,0.6,0.4,0.9c-1.2-0.4-2.8-0.6-4.6-0.6l0,0l-3.8,0.3c0.3-0.5,0.8-1,1.5-1.7l2.6-2.7l0,0l0,0
					C51.9,42.9,52.4,42.4,52.9,42z M36,82.6c-2,2.1-4.6,3.1-7.3,3.1c-4.6,0-9.4-2.9-11.1-7.9c0,0,2.3,0.8,5.3,1.1
					c-0.1,0.8-0.1,1.5,0.2,2.2c0.6,1.4,2.1,1.9,3.1,2.1l1.3,0.3l0.1-1.4l0.1-1.3c0.1-0.1,0.2-0.2,0.4-0.3c0,0.1,0.1,0.2,0.1,0.3
					c0.3,0.9,1.3,1.8,2.5,1.8c0.1,0,0.2,0,0.3,0l0.8,0.7l0.9,0.8l0.8-0.9c1.1-1.2,1.6-2.6,1.3-3.8c-0.1-0.4-0.2-0.8-0.5-1.1
					c0.7,0,1.3-0.3,1.8-0.8c0.2-0.2,0.3-0.4,0.5-0.6l0.1,0l1.8,0.8l-0.2-2c0-0.1,0-0.1,0-0.2c0.8,0.1,1.8,0.4,3.1,0.9
					c0.2,0.1,0.4,0.2,0.5,0.2c0.1,0,0.2,0.1,0.3,0.1c-0.4,0.2-0.8,0.5-1.2,0.7c-1.8,1.2-3,2.4-3.7,3.7C36.9,81.6,36.5,82.1,36,82.6z
					 M50,78.5c-1.3,1.1-3.1,1.3-4.8,1.4c-5,0.4-7.1,4.9-7.1,4.9c-0.4-1-0.3-2,0.1-2.9c0.6-1.4,2-2.5,3.4-3.5
					c2.4-1.5,5.1-2.4,5.1-2.4c-0.5,0-0.9,0.1-1.3,0.1c-1,0-1.9-0.1-2.6-0.3c-0.4-0.1-0.8-0.3-1.1-0.4c-2.2-1.1-2.3-3.2-2.3-3.2
					c1.8,1.2,3.3,1.6,4.8,1.6c1.9,0,3.5-0.7,5.3-1.2c0.5-0.2,1-0.2,1.5-0.2c1.4,0,2.7,0.5,3.4,0.9c-0.9,0.6-1.7,1.3-2.2,2.1
					c-0.2,0.4-0.4,0.7-0.6,1.1C51,77.3,50.6,78,50,78.5z M58.4,76.7c-1.7,0.4-3.4,1.4-3.9,3.2c-0.3,1-0.3,2.2-0.2,3.3
					c0,0-3.6-2-1.7-6c0.2-0.3,0.4-0.7,0.6-1c0.5-0.7,1-1.2,1.5-1.6c0.2-0.1,0.4-0.2,0.6-0.3l0.5-0.3c0.9,0.8,2.1,1,3.1,1l1.4,0.1
					l-0.1-1.4L60,72.3c0.2-0.1,0.3-0.3,0.5-0.5c0,0,0,0,0,0c0.1,0.2,0.1,0.3,0.2,0.5c0.4,0.7,1.4,1.4,2.5,1.4c0.3,0,0.6-0.1,0.8-0.2
					l0.6,0.4c0,0-0.1,0.1-0.1,0.1C62.5,75.9,61,76.1,58.4,76.7z M112.2,83.3c0,0,1-4.5-1.2-6c-3.5-2.3-5.3-0.3-9.3-3.3
					c0-0.1-0.1-0.1-0.1-0.2c-1.8-1.9-3.9-3-5.7-3.7c-1.3,0.2-2.7,0.4-4.2,0.4c0.3,0,0.6,0,0.9,0.1c0.6,0.1,1.1,0.2,1.7,0.3
					c0.9,0.2,1.9,0.5,2.9,1c1.2,0.6,2.4,1.5,3.5,2.7c0.1,0.1,0.1,0.1,0.2,0.2c2.4,2.6,1.8,5.2,1.8,5.2S99.7,76,95,76
					c-2.2,0-4.1,0.7-5.1,1.2l-0.7,0.4l-0.7-0.4c-1-0.5-2.9-1.2-5.1-1.2c-4.6,0-7.8,4.1-7.8,4.1s-0.7-2.6,1.8-5.2
					c0.1-0.1,0.1-0.1,0.2-0.2c1.1-1.1,2.3-2.1,3.5-2.7c1-0.5,2-0.8,2.9-1c0.6-0.1,1.2-0.2,1.7-0.3c0.3,0,0.6-0.1,0.9-0.1
					c-1.6-0.1-3-0.2-4.2-0.4c-1.8,0.6-3.9,1.8-5.7,3.7c-0.1,0.1-0.1,0.1-0.1,0.2c-3.9,3-5.8,1-9.3,3.3c-2.2,1.4-1.2,6-1.2,6
					s-4.6-3.5-0.4-8.1c0.9-1,1.9-1.8,2.7-2.3c0.6-0.4,1.1-0.7,1.1-0.7s-0.4,0-0.9-0.1c-0.3,0-0.6-0.1-0.9-0.2c-0.1,0-0.1,0-0.2-0.1
					c0.2-0.8,0.1-1.6-0.2-2.3c-0.1-0.3-0.3-0.6-0.5-0.8c1.8,0.5,4,0.9,6.5,0.9c1,0,2-0.2,3-0.3c0.4,0,0.8-0.1,1.2-0.1
					c0.1,0,0.3,0,0.4,0c-1-0.3-1.9-0.6-2.7-1c-0.6,0.1-1.3,0.2-1.9,0.2c-2,0-3.8-0.2-5.3-0.6c0.3-0.3,0.5-0.6,0.6-1l0,0l0.2,0
					l1.9,0.4l-0.6-1.9c-1-3.6-3.5-4-4.5-4c-1.6,0-3.4,0.9-4.5,2.4l0,0l-2.5,0.8c-0.6-1-0.5-2.8-0.4-3.9c0.4-0.3,1.1-0.9,1.6-1.7
					c0.9-1.2,1.7-3.3,1-6.2c-0.1-0.4-0.5-1.8-2-3.1l0.3-0.9l0.2-0.8c0.4-0.2,0.7-0.4,0.9-0.6l0,0c0.3,0.7,1,1.3,1.8,1.6l0.1,0.7
					l0.2,1.3l1.2-0.2c1.7-0.3,2.8-1.4,3.1-2.8c0.1-0.6,0-1.3-0.3-1.9c0.6-0.2,1.2-0.5,1.7-1.1l1.6,0.9l0.2-1.9
					c0.1-1.7-0.5-2.8-1-3.3c-0.7-0.7-1.7-1.2-2.7-1.2c-0.1,0-0.2,0-0.3,0c0-0.1,0.1-0.2,0.1-0.3c0.1-0.3,0.1-0.6,0-1l0.6-0.5
					l1.2-1.1l-1.4-0.9c-0.7-0.4-1.5-0.7-2.3-0.7c-1.3,0-2.8,0.7-3.5,2.4l0,0l0,0c-0.3-0.4-0.7-0.9-1.1-1.6c-0.2-0.3-0.3-0.6-0.5-0.9
					c-0.2-0.3-0.4-0.7-0.6-1v0c0.6-2.4,0.6-5.6-0.3-8.6l2.3-2.2l0,0c0.2,0.3,0.5,0.5,0.8,0.6c0.4,0.2,0.8,0.3,1.3,0.3h0l1.2,0v-1.5
					c0,0,0.1-0.1,0.1-0.1c0.3-0.3,0.6-0.7,0.6-1.2l1.1,0l1.1,0l0.1-1.1c0-0.3,0-0.7-0.1-1h0.4l1.1,0l0.1-1.1c0-0.5-0.1-1-0.2-1.4h0
					h1.2l0-1.2c0-0.9-0.5-1.9-1.3-2.4c-0.7-0.5-1.5-0.7-2.1-0.8V9.5h46.4v2.8c-0.6,0.1-1.5,0.2-2.2,0.8l0,0
					c-0.8,0.6-1.3,1.5-1.3,2.4l0,1.2h1.2h0c-0.2,0.4-0.3,0.9-0.2,1.4l0.1,1.1l1.1,0h0.4c-0.1,0.3-0.1,0.6-0.1,1l0.1,1.1l1.1,0l1.1,0
					c0.1,0.4,0.3,0.9,0.6,1.2c0,0,0.1,0.1,0.1,0.1v1.5l1.2,0h0c0.5,0,0.9-0.1,1.3-0.3c0.3-0.2,0.6-0.4,0.8-0.6l2.3,2.2
					c-0.9,3-1,6.2-0.3,8.6v0c-0.2,0.3-0.4,0.7-0.6,1c-0.2,0.3-0.3,0.6-0.5,0.9c-0.4,0.7-0.8,1.2-1.1,1.6l0,0
					c-0.7-1.8-2.2-2.4-3.5-2.4c-0.8,0-1.6,0.2-2.3,0.7l-1.4,0.9l1.2,1.1l0.6,0.5c-0.1,0.3-0.1,0.6,0,1c0,0.1,0,0.2,0.1,0.3
					c-0.1,0-0.2,0-0.3,0c-1,0-2,0.4-2.7,1.2c-0.5,0.6-1.1,1.6-1,3.3l0.2,1.9l1.6-0.9c0.4,0.5,1,0.9,1.7,1.1
					c-0.3,0.6-0.4,1.3-0.3,1.9c0.2,1.5,1.3,2.5,3.1,2.8l1.2,0.2l0.2-1.3l0.1-0.7c0.9-0.2,1.5-0.9,1.8-1.6c0.2,0.2,0.5,0.5,0.9,0.6
					l0.2,0.7l0,0.1l0.3,0.9c-1.6,1.3-2,2.8-2,3.1c-0.8,2.9,0.1,5,1,6.2c0.6,0.8,1.2,1.4,1.6,1.7c0.2,1.1,0.2,2.9-0.4,3.9l-2.5-0.8
					l0,0c-1.2-1.5-2.9-2.4-4.5-2.4c-1,0-3.4,0.4-4.5,4l-0.6,1.9l1.9-0.4l0.2,0l0,0c0.1,0.3,0.3,0.7,0.6,1c-1.5,0.3-3.3,0.6-5.3,0.6
					c-0.6,0-1.3-0.1-1.9-0.2c-0.8,0.3-1.7,0.7-2.7,1c0.1,0,0.2,0,0.4,0c0.4,0,0.8,0,1.2,0.1c1.1,0.1,2.1,0.3,3,0.3
					c2.5,0,4.7-0.4,6.5-0.9c-0.2,0.2-0.4,0.5-0.5,0.8c-0.3,0.7-0.3,1.5-0.2,2.3c-0.1,0-0.1,0-0.2,0.1c-0.3,0.1-0.7,0.2-0.9,0.2
					c-0.5,0.1-0.8,0.1-0.8,0.1s0.5,0.2,1.1,0.7c0.8,0.5,1.8,1.3,2.7,2.3C116.8,79.8,112.2,83.3,112.2,83.3z M124,83.2
					c0.1-1.1,0.1-2.2-0.2-3.3c-0.6-1.8-2.2-2.8-3.9-3.2c-2.6-0.6-4.1-0.8-6.1-2.7c0,0-0.1-0.1-0.1-0.1l0.6-0.4
					c0.2,0.1,0.5,0.2,0.8,0.2c1.1,0,2.1-0.7,2.5-1.4c0.1-0.2,0.2-0.3,0.2-0.5c0,0,0,0,0,0c0.2,0.2,0.3,0.3,0.5,0.5l-0.1,1.4
					l-0.1,1.4l1.4-0.1c0.9-0.1,2.1-0.2,3.1-1l0.5,0.3c0.2,0.1,0.4,0.2,0.6,0.3c0.5,0.4,1.1,0.9,1.5,1.6c0.2,0.4,0.4,0.7,0.6,1
					C127.6,81.2,124,83.2,124,83.2z M140,84.8c0,0-2-4.5-7.1-4.9c-1.7-0.1-3.5-0.4-4.8-1.4c-0.6-0.5-0.9-1.2-1.5-1.9
					c-0.2-0.4-0.4-0.7-0.6-1.1c-0.6-0.9-1.3-1.6-2.2-2.1c0.7-0.4,1.9-0.9,3.4-0.9c0.5,0,1,0.1,1.5,0.2c1.7,0.5,3.4,1.2,5.3,1.2
					c1.4,0,3-0.4,4.8-1.6c0,0-0.1,2-2.3,3.2c-0.3,0.2-0.7,0.3-1.1,0.4c-0.7,0.2-1.6,0.3-2.6,0.3c-0.4,0-0.9,0-1.3-0.1
					c0,0,2.7,0.9,5.1,2.4c1.5,0.9,2.8,2.1,3.4,3.5C140.4,82.8,140.5,83.7,140,84.8z M149.6,85.6c-2.7,0-5.4-1-7.3-3.1
					c-0.5-0.5-0.9-1-1.3-1.4c-0.6-1.3-1.9-2.6-3.7-3.7c-0.4-0.2-0.7-0.5-1.2-0.7c0.1,0,0.2-0.1,0.3-0.1c0.2-0.1,0.4-0.2,0.5-0.2
					c1.3-0.5,2.2-0.8,3.1-0.9c0,0.1,0,0.1,0,0.2l-0.2,2l1.8-0.8l0.1,0c0.1,0.2,0.3,0.5,0.5,0.6c0.5,0.5,1.1,0.8,1.8,0.8
					c-0.2,0.3-0.4,0.7-0.5,1.1c-0.3,1.3,0.2,2.6,1.3,3.8l0.8,0.9l0.9-0.8l0.8-0.7c0.1,0,0.2,0,0.3,0c1.2,0,2.2-0.9,2.5-1.8
					c0-0.1,0.1-0.2,0.1-0.3c0.1,0.1,0.2,0.2,0.4,0.3l0.1,1.3l0.1,1.4l1.3-0.3c1-0.2,2.4-0.8,3.1-2.1c0.3-0.6,0.4-1.4,0.2-2.2
					c2.9-0.3,5.3-1.1,5.3-1.1C159,82.8,154.2,85.6,149.6,85.6z M46.3,5.5c-1.7,0.5-3.9,0-3.9,0c1.3,1.3,1.8,2.1,1.8,2.1
					C45.9,7.7,46.3,6.6,46.3,5.5z M132,5.5c0,1.1,0.4,2.2,2.1,2.1c0,0,0.5-0.8,1.8-2.1C135.9,5.5,133.7,5.9,132,5.5z M133,28.8
					c0.3-0.5,0.6-1,0.9-1.5c0.5-0.8,0.9-1.7,1.3-2.6c0.4-0.9,0.7-1.8,1-2.8c0.3-0.9,0.6-1.8,0.8-2.8c-0.4,0.9-0.8,1.7-1.3,2.6
					c-0.4,0.9-0.9,1.7-1.4,2.5c-0.5,0.8-1.1,1.5-1.7,2.3c-0.5,0.6-1.1,1.3-1.7,2C131.7,28.5,132.4,28.6,133,28.8z M43,24.7
					c0.4,0.9,0.9,1.8,1.3,2.6c0.3,0.5,0.6,1,0.9,1.5c0.6-0.2,1.3-0.4,1.9-0.4c-0.6-0.6-1.1-1.3-1.7-2c-0.6-0.7-1.2-1.5-1.7-2.3
					c-0.5-0.8-0.9-1.6-1.4-2.5c-0.4-0.9-0.9-1.7-1.3-2.6c0.3,0.9,0.6,1.8,0.8,2.8C42.3,22.9,42.6,23.8,43,24.7z M42.7,30.2
					c-1.5-2.1-2.9-4.2-4-6.5c-0.6-1.2-1.2-2.5-1.7-3.8c-0.5-1.3-0.9-2.7-1.2-4c0.2,1.4,0.4,2.8,0.7,4.2c0.3,1.4,0.8,2.7,1.3,4.1
					c0.5,1.3,1.1,2.6,1.7,3.9c0.5,1,1,2,1.5,3C41.5,30.8,42.1,30.5,42.7,30.2z M137.2,30.9c0.5-1,1-2,1.5-3c0.6-1.3,1.2-2.6,1.7-3.9
					c0.5-1.3,0.9-2.7,1.3-4.1c0.3-1.4,0.6-2.8,0.7-4.2c-0.3,1.4-0.7,2.7-1.2,4c-0.5,1.3-1,2.6-1.7,3.8c-1.2,2.3-2.6,4.4-4,6.5
					C136.2,30.5,136.7,30.8,137.2,30.9z"/>
			</g>
			<g>
				<g>
					<path class="st1" d="M41.2,97.8c-1.5,0-2.6,0.6-3.3,1.7c-0.7-1.1-1.7-1.7-3.1-1.7s-2.4,0.5-3.1,1.6v-1.3h-2.3v10.8h2.3v-6
						c0-0.9,0.2-1.6,0.7-2.1c0.4-0.5,1-0.7,1.7-0.7c0.6,0,1.1,0.2,1.5,0.6c0.4,0.4,0.5,1,0.5,1.7v6.5h2.3v-6c0-0.9,0.2-1.7,0.6-2.1
						s1-0.7,1.7-0.7c0.6,0,1.2,0.2,1.5,0.6c0.4,0.4,0.6,1,0.6,1.7v6.5h2.3v-6.7c0-1.3-0.4-2.4-1.1-3.2
						C43.4,98.2,42.4,97.8,41.2,97.8z"/>
					<path class="st1" d="M165.7,97.8c-1.5,0-2.6,0.6-3.3,1.7v-5.7H160v15.1h2.3V103c0-1,0.2-1.8,0.8-2.3c0.5-0.5,1.2-0.8,2-0.8
						c0.7,0,1.3,0.2,1.8,0.6s0.6,1,0.6,1.9v6.4h2.3v-6.6c0-1.4-0.4-2.5-1.1-3.2C167.9,98.2,166.9,97.8,165.7,97.8z"/>
					<path class="st1" d="M7.9,103.3h5c-0.2,1-0.8,1.9-1.6,2.5c-0.8,0.6-1.9,0.9-3.3,0.9c-1.7,0-3-0.5-4-1.5s-1.5-2.3-1.5-3.9
						c0-1.6,0.5-2.8,1.5-3.9s2.3-1.6,3.9-1.6c1,0,1.9,0.2,2.7,0.7s1.4,1,1.8,1.7l1.7-1.8c-0.6-0.8-1.4-1.5-2.3-2
						c-1.2-0.6-2.4-1-3.9-1c-2.2,0-4.1,0.8-5.6,2.3S0,99.1,0,101.3c0,2.2,0.8,4,2.3,5.6c1.5,1.5,3.4,2.3,5.8,2.3c2.2,0,4-0.7,5.3-2
						c1.4-1.3,2-3,2-5.1v-1H7.9C7.9,101,7.9,103.3,7.9,103.3z"/>
					<path class="st1" d="M177.9,100.3v-2.2h-2.7v-3h-2.3v3h-2v2.2h2v5.2c0,1.4,0.4,2.4,1.2,2.9c0.8,0.5,2,0.7,3.8,0.5v-2.1
						c-0.6,0-1.1,0-1.5,0c-0.4,0-0.7-0.1-0.9-0.3c-0.2-0.2-0.3-0.5-0.3-1v-5.2C175.3,100.3,177.9,100.3,177.9,100.3z"/>
					<path class="st1" d="M22.4,97.8c-1.7,0-3,0.6-4.1,1.6c-1,1.1-1.6,2.4-1.6,4c0,1.6,0.5,3,1.6,4.1c1.1,1.1,2.5,1.6,4.2,1.6
						c1.9,0,3.3-0.6,4.4-1.9l-1.6-1.6c-0.6,0.9-1.5,1.3-2.8,1.3c-0.9,0-1.7-0.2-2.3-0.7c-0.6-0.4-1-1.1-1.2-1.9h8.6
						c0.1-0.4,0.1-0.7,0.1-1c0-1.6-0.5-2.9-1.5-4C25.3,98.3,24,97.8,22.4,97.8z M19.2,102.5c0.2-0.8,0.5-1.5,1.1-1.9
						c0.6-0.5,1.3-0.7,2.1-0.7c0.8,0,1.4,0.2,2,0.7c0.6,0.4,0.9,1.1,1.1,2H19.2z"/>
					<path class="st1" d="M52.5,97.8c-1.7,0-3,0.6-4.1,1.6c-1.1,1.1-1.6,2.4-1.6,4c0,1.6,0.5,3,1.6,4.1c1.1,1.1,2.5,1.6,4.2,1.6
						c1.9,0,3.3-0.6,4.4-1.9l-1.6-1.6c-0.6,0.9-1.5,1.3-2.8,1.3c-0.9,0-1.7-0.2-2.3-0.7c-0.6-0.4-1-1.1-1.2-1.9h8.6
						c0.1-0.4,0.1-0.7,0.1-1c0-1.6-0.5-2.9-1.5-4C55.4,98.3,54.1,97.8,52.5,97.8z M49.3,102.5c0.2-0.8,0.5-1.5,1.1-1.9
						c0.6-0.5,1.3-0.7,2.1-0.7c0.8,0,1.4,0.2,2,0.7c0.6,0.4,0.9,1.1,1.1,2H49.3z"/>
					<path class="st1" d="M64.7,97.8c-1.7,0-3,0.6-4.1,1.6c-1.1,1.1-1.6,2.4-1.6,4c0,1.6,0.5,3,1.6,4.1c1.1,1.1,2.5,1.6,4.2,1.6
						c1.9,0,3.3-0.6,4.4-1.9l-1.6-1.6c-0.6,0.9-1.5,1.3-2.8,1.3c-0.9,0-1.7-0.2-2.3-0.7c-0.6-0.4-1-1.1-1.2-1.9H70
						c0.1-0.4,0.1-0.7,0.1-1c0-1.6-0.5-2.9-1.5-4C67.6,98.3,66.3,97.8,64.7,97.8z M61.4,102.5c0.2-0.8,0.5-1.5,1.1-1.9
						c0.6-0.5,1.3-0.7,2.1-0.7c0.8,0,1.4,0.2,2,0.7c0.6,0.4,0.9,1.1,1.1,2H61.4z"/>
					<path class="st1" d="M96.3,97.8c-1.7,0-3,0.6-4.1,1.6c-1.1,1.1-1.6,2.4-1.6,4c0,1.6,0.5,3,1.6,4.1c1.1,1.1,2.5,1.6,4.2,1.6
						c1.9,0,3.3-0.6,4.4-1.9l-1.6-1.6c-0.6,0.9-1.5,1.3-2.8,1.3c-0.9,0-1.7-0.2-2.3-0.7c-0.6-0.4-1-1.1-1.2-1.9h8.6
						c0.1-0.4,0.1-0.7,0.1-1c0-1.6-0.5-2.9-1.5-4C99.2,98.3,97.9,97.8,96.3,97.8z M93,102.5c0.2-0.8,0.5-1.5,1.1-1.9
						c0.6-0.5,1.3-0.7,2.1-0.7c0.8,0,1.4,0.2,2,0.7c0.6,0.4,0.9,1.1,1.1,2H93z"/>
					<path class="st1" d="M141.7,97.8c-1.7,0-3,0.6-4.1,1.6c-1.1,1.1-1.6,2.4-1.6,4c0,1.6,0.5,3,1.6,4.1c1.1,1.1,2.5,1.6,4.2,1.6
						c1.9,0,3.3-0.6,4.4-1.9l-1.6-1.6c-0.6,0.9-1.5,1.3-2.8,1.3c-0.9,0-1.7-0.2-2.3-0.7c-0.6-0.4-1-1.1-1.2-1.9h8.6
						c0.1-0.4,0.1-0.7,0.1-1c0-1.6-0.5-2.9-1.5-4C144.6,98.3,143.3,97.8,141.7,97.8z M138.5,102.5c0.2-0.8,0.5-1.5,1.1-1.9
						c0.6-0.5,1.3-0.7,2.1-0.7c0.8,0,1.4,0.2,2,0.7c0.6,0.4,0.9,1.1,1.1,2H138.5z"/>
					<path class="st1" d="M87,95.1h-2.3v3h-2v2.2h2v5.2c0,1.4,0.4,2.4,1.2,2.9c0.8,0.5,2,0.7,3.8,0.5v-2.1c-0.6,0-1.1,0-1.5,0
						c-0.4,0-0.7-0.1-0.9-0.3c-0.2-0.2-0.3-0.5-0.3-1v-5.2h2.7v-2.2H87L87,95.1C87,95.1,87,95.1,87,95.1z"/>
					<path class="st1" d="M117.2,103.7c0,0.9-0.3,1.7-0.8,2.2c-0.5,0.6-1.3,0.8-2.4,0.8s-1.9-0.3-2.4-0.8c-0.5-0.6-0.8-1.3-0.8-2.2
						v-9.9h-2.5v10.1c0,1.6,0.5,2.9,1.6,3.9c1.1,0.9,2.4,1.4,4.1,1.4s3.1-0.5,4.1-1.4c1.1-0.9,1.6-2.2,1.6-3.9V93.8h-2.5
						L117.2,103.7L117.2,103.7z"/>
					<path class="st1" d="M125.4,95.1h-2.3v3h-2v2.2h2v5.2c0,1.4,0.4,2.4,1.2,2.9c0.8,0.5,2,0.7,3.8,0.5v-2.1c-0.6,0-1.1,0-1.5,0
						c-0.4,0-0.7-0.1-0.9-0.3c-0.2-0.2-0.3-0.5-0.3-1v-5.2h2.7v-2.2h-2.7L125.4,95.1C125.4,95.1,125.4,95.1,125.4,95.1z"/>
					<path class="st1" d="M77.4,97.8c-1.5,0-2.6,0.6-3.3,1.7v-1.4h-2.3v10.8h2.3V103c0-1,0.2-1.8,0.8-2.3c0.5-0.5,1.2-0.8,2-0.8
						c0.7,0,1.3,0.2,1.8,0.6c0.4,0.4,0.6,1,0.6,1.9v6.4h2.3v-6.6c0-1.4-0.4-2.5-1.1-3.2C79.7,98.2,78.7,97.8,77.4,97.8z"/>
					<path class="st1" d="M132.3,99.9v-1.8H130v10.8h2.3v-5.4c0-1.1,0.3-1.9,1-2.4c0.7-0.5,1.4-0.7,2.3-0.6v-2.5
						C134,97.9,132.9,98.5,132.3,99.9z"/>
				</g>
				<path class="st1" d="M157,105.1c-0.5,1-1.4,1.7-2.6,1.9c0,0,0,0-0.1,0c-0.2,0-0.3,0-0.5,0l0,0l0,0l0,0c-1.9,0-3.4-1.5-3.4-3.5
					s1.5-3.5,3.4-3.5l0,0l0,0l0,0c0.2,0,0.3,0,0.5,0c0,0,0,0,0.1,0c1.2,0.2,2.1,0.8,2.6,1.8l1.6-1.6c-1-1.5-2.7-2.4-4.7-2.4
					c-3.1,0-5.7,2.5-5.7,5.7c0,3.2,2.5,5.7,5.7,5.7c2,0,3.7-1,4.7-2.4L157,105.1z"/>
			</g>
		</g>
	</g>
</g>
</svg>
